<svg width="24" height="24" viewBox="0 0 24 24" fill="none" xmlns="http://www.w3.org/2000/svg">
<g clip-path="url(#clip0_65:2923)">
<path d="M6.667 0.000244141C4.8988 0.000244141 3.20302 0.702658 1.95272 1.95296C0.702414 3.20327 0 4.89905 0 6.66724V17.3332C0 18.2088 0.172447 19.0757 0.507495 19.8846C0.842543 20.6935 1.33363 21.4284 1.95272 22.0475C2.57181 22.6666 3.30677 23.1577 4.11565 23.4927C4.92453 23.8278 5.79148 24.0002 6.667 24.0002H17.333C18.2085 24.0002 19.0755 23.8278 19.8843 23.4927C20.6932 23.1577 21.4282 22.6666 22.0473 22.0475C22.6664 21.4284 23.1575 20.6935 23.4925 19.8846C23.8276 19.0757 24 18.2088 24 17.3332V6.66724C24 5.79172 23.8276 4.92477 23.4925 4.11589C23.1575 3.30702 22.6664 2.57205 22.0473 1.95296C21.4282 1.33388 20.6932 0.842787 19.8843 0.507739C19.0755 0.172691 18.2085 0.000244141 17.333 0.000244141H6.667ZM20 2.66724C20.2636 2.66724 20.5214 2.74542 20.7406 2.8919C20.9598 3.03837 21.1306 3.24655 21.2315 3.49013C21.3324 3.7337 21.3588 4.00172 21.3074 4.2603C21.256 4.51888 21.129 4.75639 20.9426 4.94282C20.7561 5.12924 20.5186 5.2562 20.2601 5.30763C20.0015 5.35906 19.7335 5.33267 19.4899 5.23178C19.2463 5.13088 19.0381 4.96003 18.8917 4.74082C18.7452 4.52161 18.667 4.26389 18.667 4.00024C18.6673 3.64679 18.8078 3.30789 19.0577 3.05796C19.3076 2.80803 19.6465 2.66751 20 2.66724ZM12 5.33324C13.3186 5.33324 14.6076 5.72426 15.704 6.45684C16.8004 7.18942 17.6549 8.23066 18.1595 9.44889C18.6641 10.6671 18.7961 12.0076 18.5389 13.3009C18.2816 14.5942 17.6467 15.7821 16.7143 16.7145C15.7819 17.6469 14.5939 18.2819 13.3007 18.5391C12.0074 18.7964 10.6669 18.6644 9.44865 18.1597C8.23041 17.6551 7.18917 16.8006 6.45659 15.7042C5.72401 14.6078 5.333 13.3189 5.333 12.0002C5.333 10.232 6.03541 8.53627 7.28572 7.28596C8.53602 6.03566 10.2318 5.33324 12 5.33324ZM12 8.00024C11.2089 8.00024 10.4355 8.23484 9.77772 8.67437C9.11992 9.11389 8.60723 9.73861 8.30448 10.4695C8.00173 11.2004 7.92252 12.0047 8.07686 12.7806C8.2312 13.5565 8.61216 14.2693 9.17157 14.8287C9.73098 15.3881 10.4437 15.769 11.2196 15.9234C11.9956 16.0777 12.7998 15.9985 13.5307 15.6958C14.2616 15.393 14.8864 14.8803 15.3259 14.2225C15.7654 13.5647 16 12.7914 16 12.0002C16 10.9394 15.5786 9.92196 14.8284 9.17182C14.0783 8.42167 13.0609 8.00024 12 8.00024Z" fill="#293961"/>
</g>
<defs>
<clipPath id="clip0_65:2923">
<rect width="24" height="24" fill="white" transform="translate(0 0.000244141)"/>
</clipPath>
</defs>
</svg>
