<svg width="44" height="70" viewBox="0 0 44 70" fill="none" xmlns="http://www.w3.org/2000/svg">
<g clip-path="url(#clip0_35:463)">
<path d="M41.0507 24.4209L24.5184 0.000244141L3.88831 25.0023C2.38904 26.823 1.35047 28.9829 0.711968 31.1468C0.121961 33.1411 -0.100302 35.2203 0.0451789 37.2832C0.251277 40.2465 1.22519 43.1734 2.97097 45.7612L11.9302 58.999L19.374 69.9962L40.0485 45.0588C44.9342 39.1605 45.3181 30.7835 41.0507 24.4209ZM22.712 24.5824L22.6716 25.1032L22.6473 25.4544C22.3119 28.3773 20.8126 30.953 18.6102 32.693C18.2829 32.9554 17.9394 33.1977 17.5878 33.4197C17.5757 33.4278 17.5635 33.4359 17.5514 33.4439C16.2461 34.2554 14.7509 34.7964 13.1466 34.9982V35.0184C15.2924 35.1759 17.22 36.1004 18.6587 37.5174C18.8163 37.6749 18.9699 37.8363 19.1113 38.0019C20.4489 39.54 21.2612 41.5465 21.2612 43.7386V43.7871C21.2612 43.9405 21.2572 44.0939 21.245 44.2473C21.245 44.3442 21.241 44.4451 21.2329 44.542L21.2006 44.9982L20.1943 58.4056L12.2777 46.7221C12.2777 46.7221 12.2818 46.6736 12.2818 46.6696C12.2899 46.5848 12.3868 44.8287 12.4677 43.67C12.4717 43.6619 12.4717 43.6539 12.4717 43.6417C12.4757 43.5852 12.4798 43.5206 12.4838 43.4601C12.4879 43.4318 12.4879 43.4036 12.4919 43.3713C12.4959 43.2905 12.4959 43.2057 12.4959 43.125C12.4959 39.9276 9.95811 37.3155 6.78581 37.1944C6.70903 37.1904 6.63225 37.1904 6.55546 37.1904H5.88463L6.20793 32.7899H6.78581C7.00403 32.7899 7.21821 32.7778 7.43239 32.7576C10.7138 32.4589 13.3446 29.9074 13.7568 26.6615V26.6575C13.7891 26.4072 13.8093 26.1448 13.8134 25.8864L13.9952 23.2986L14.0073 23.2865L23.6697 11.6191L22.712 24.5824ZM34.694 40.8238L29.8769 46.6494L26.1833 41.2033C23.6616 37.4811 23.9041 32.5436 26.7774 29.0879L31.5823 23.3107L35.2597 28.7326C37.7854 32.4468 37.5511 37.368 34.694 40.8238Z" fill="#00D369"/>
</g>
<defs>
<clipPath id="clip0_35:463">
<rect width="44" height="70" fill="white" transform="translate(0 0.000244141)"/>
</clipPath>
</defs>
</svg>
