<svg width="24" height="25" viewBox="0 0 24 25" fill="none" xmlns="http://www.w3.org/2000/svg">
<path d="M20.4491 21.3018H16.8931V15.5007C16.8931 14.1174 16.8694 12.3366 15.0436 12.3366C13.1915 12.3366 12.9081 13.8439 12.9081 15.4V21.3014H9.35213V9.37208H12.7658V11.0024H12.8137C13.1553 10.3939 13.649 9.89328 14.2421 9.55393C14.8353 9.21458 15.5057 9.04916 16.1819 9.0753C19.7861 9.0753 20.4506 11.5448 20.4506 14.7575L20.4491 21.3018ZM5.33963 7.74151C4.19991 7.74171 3.27581 6.77941 3.27562 5.5922C3.27544 4.40499 4.19916 3.44239 5.33887 3.4422C6.47859 3.44191 7.40269 4.40421 7.40287 5.59142C7.40297 6.16154 7.18566 6.70835 6.79872 7.11157C6.41179 7.51479 5.88694 7.74138 5.33963 7.74151ZM7.11769 21.3019H3.55791V9.37208H7.11759V21.3018L7.11769 21.3019ZM22.2219 0.00206366H1.77103C0.804469 -0.00926446 0.0118125 0.797278 0 1.80411V23.196C0.0114375 24.2033 0.804 25.0106 1.77094 25.0001H22.2219C23.1909 25.0126 23.9866 24.2053 24 23.196V1.80245C23.9862 0.793665 23.1905 -0.0127801 22.2219 0.000403505" fill="#293961"/>
</svg>
