<svg width="30" height="25" viewBox="0 0 30 25" fill="none" xmlns="http://www.w3.org/2000/svg">
<path d="M30 2.95969C28.8961 3.46162 27.7099 3.80085 26.4649 3.95346C27.7358 3.17238 28.7116 1.93551 29.1711 0.461801C27.963 1.19696 26.6412 1.71492 25.2628 1.99331C24.14 0.766781 22.5405 0.000244141 20.7702 0.000244141C17.3711 0.000244141 14.6152 2.82606 14.6152 6.31135C14.6152 6.80607 14.6696 7.28769 14.7745 7.74973C9.6593 7.48645 5.12414 4.9739 2.0884 1.15552C1.55871 2.08764 1.2552 3.1719 1.2552 4.32837C1.2552 6.51803 2.34188 8.4497 3.99328 9.58154C3.01588 9.55015 2.05998 9.27945 1.20539 8.79205C1.20504 8.81849 1.20504 8.84492 1.20504 8.87148C1.20504 11.9293 3.3266 14.4802 6.14215 15.06C5.2358 15.3128 4.28511 15.3498 3.3627 15.1682C4.14586 17.6755 6.41895 19.5001 9.11215 19.5512C7.0057 21.2439 4.35176 22.2529 1.46824 22.2529C0.971367 22.2529 0.481523 22.223 0 22.1647C2.72379 23.9554 5.95898 25.0002 9.43477 25.0002C20.7559 25.0002 26.9466 15.3833 26.9466 7.04328C26.9466 6.76954 26.9407 6.49737 26.9288 6.22675C28.1337 5.33354 29.1737 4.22721 30 2.95969Z" fill="#293961"/>
</svg>
