<svg width="624" height="566" viewBox="0 0 624 566" fill="none" xmlns="http://www.w3.org/2000/svg">
<rect x="140" y="29" width="456" height="268" fill="url(#paint0_radial_73_2010)"/>
<g filter="url(#filter0_b_73_2010)">
<rect width="624" height="566" rx="25" fill="url(#paint1_linear_73_2010)"/>
</g>
<g filter="url(#filter1_d_73_2010)">
<rect x="31" y="34" width="398.514" height="501" rx="10" fill="white"/>
</g>
<path d="M57.7921 101.344H56.3681V107.36C56.3681 108.704 56.5441 110.464 56.5761 110.72L52.0481 101.344H50.0641V112.368H51.4881V107.312C51.4881 105.264 51.3601 103.92 51.2801 103.008L55.7601 112.368H57.7921V101.344ZM67.274 107.904C67.274 105.328 66.074 103.744 63.802 103.744C61.626 103.744 60.298 105.616 60.298 108.24C60.298 110.912 61.674 112.56 64.026 112.56C65.194 112.56 66.138 112.16 66.97 111.504L66.33 110.624C65.594 111.136 64.97 111.36 64.138 111.36C62.922 111.36 62.01 110.608 61.866 108.656H67.242C67.258 108.464 67.274 108.192 67.274 107.904ZM65.818 107.568H61.866C61.978 105.696 62.714 104.912 63.834 104.912C65.162 104.912 65.818 105.824 65.818 107.472V107.568ZM73.3051 111.008C72.8891 111.232 72.5531 111.344 72.1851 111.344C71.4491 111.344 71.1771 110.944 71.1771 110.096V105.072H73.0171L73.1771 103.936H71.1771V101.856L69.7051 102.032V103.936H68.2331V105.072H69.7051V110.16C69.7051 111.728 70.5531 112.56 71.9771 112.56C72.6971 112.56 73.3051 112.368 73.8651 111.984L73.3051 111.008Z" fill="#666666"/>
<rect x="47" y="471" width="363.203" height="44.5553" rx="22.2777" fill="#00D369"/>
<path d="M214.04 486.292C211.592 486.292 209.81 487.66 209.81 489.73C209.81 491.62 210.944 492.664 213.554 493.474C215.498 494.068 216.02 494.536 216.02 495.58C216.02 496.786 215.066 497.434 213.734 497.434C212.438 497.434 211.448 496.966 210.53 496.192L209.306 497.56C210.332 498.568 211.808 499.27 213.788 499.27C216.758 499.27 218.504 497.686 218.504 495.454C218.504 493.114 216.992 492.214 214.814 491.53C212.744 490.882 212.258 490.486 212.258 489.586C212.258 488.614 213.068 488.11 214.184 488.11C215.21 488.11 216.074 488.434 216.974 489.172L218.144 487.822C217.064 486.832 215.858 486.292 214.04 486.292ZM227.496 496.48V492.484C227.496 490.378 226.38 489.208 223.842 489.208C222.762 489.208 221.556 489.442 220.386 489.892L220.926 491.458C221.88 491.134 222.798 490.954 223.446 490.954C224.67 490.954 225.228 491.368 225.228 492.61V493.15H224.04C221.268 493.15 219.702 494.266 219.702 496.336C219.702 498.064 220.872 499.27 222.78 499.27C223.914 499.27 224.958 498.856 225.624 497.848C226.002 498.766 226.686 499.144 227.73 499.234L228.216 497.704C227.748 497.524 227.496 497.254 227.496 496.48ZM223.392 497.596C222.51 497.596 222.042 497.074 222.042 496.156C222.042 495.04 222.78 494.5 224.274 494.5H225.228V496.426C224.796 497.182 224.202 497.596 223.392 497.596ZM237.794 489.478H235.418L233.33 497.146L231.296 489.478H228.794L231.944 499H234.698L237.794 489.478ZM246.921 494.014C246.921 491.008 245.391 489.208 242.727 489.208C240.027 489.208 238.497 491.404 238.497 494.302C238.497 497.308 240.081 499.27 243.033 499.27C244.473 499.27 245.625 498.748 246.561 497.992L245.607 496.678C244.779 497.254 244.077 497.524 243.231 497.524C241.971 497.524 241.053 496.894 240.891 494.95H246.867C246.885 494.698 246.921 494.32 246.921 494.014ZM244.635 493.456H240.891C241.017 491.566 241.701 490.846 242.781 490.846C244.077 490.846 244.635 491.782 244.635 493.348V493.456Z" fill="white"/>
<path d="M56.9514 193.425H55.4154L52.6474 202.801L49.8794 193.425H48.2474L51.7994 204.449H53.4314L56.9514 193.425ZM64.2952 204.449H65.8952L62.3752 193.425H60.4552L56.9192 204.449H58.4552L59.2872 201.681H63.4632L64.2952 204.449ZM59.6552 200.449L61.3832 194.689L63.0952 200.449H59.6552ZM73.3102 193.425H65.4382V194.721H68.5742V204.449H70.0942V194.721H73.1502L73.3102 193.425Z" fill="#666666"/>
<path d="M56.9514 284.516H55.4154L52.6474 293.892L49.8794 284.516H48.2474L51.7994 295.54H53.4314L56.9514 284.516ZM64.2952 295.54H65.8952L62.3752 284.516H60.4552L56.9192 295.54H58.4552L59.2872 292.772H63.4632L64.2952 295.54ZM59.6552 291.54L61.3832 285.78L63.0952 291.54H59.6552ZM73.3102 284.516H65.4382V285.812H68.5742V295.54H70.0942V285.812H73.1502L73.3102 284.516ZM85.1702 295.54H86.7702L83.2502 284.516H81.3302L77.7942 295.54H79.3302L80.1622 292.772H84.3382L85.1702 295.54ZM80.5302 291.54L82.2582 285.78L83.9702 291.54H80.5302ZM96.8061 286.916C95.6701 286.916 94.9021 287.524 94.2941 288.436C93.9741 287.476 93.2061 286.916 92.1661 286.916C91.0621 286.916 90.2941 287.492 89.7341 288.34L89.6061 287.108H88.3421V295.54H89.8141V289.556C90.3741 288.66 90.8861 288.068 91.7981 288.068C92.4381 288.068 92.9821 288.436 92.9821 289.7V295.54H94.4541V289.556C95.0301 288.66 95.5261 288.068 96.4381 288.068C97.0781 288.068 97.6221 288.436 97.6221 289.7V295.54H99.0941V289.492C99.0941 287.908 98.1821 286.916 96.8061 286.916ZM105.152 286.916C102.752 286.916 101.376 288.724 101.376 291.332C101.376 294.004 102.736 295.732 105.136 295.732C107.52 295.732 108.896 293.924 108.896 291.316C108.896 288.644 107.552 286.916 105.152 286.916ZM105.152 288.1C106.544 288.1 107.312 289.124 107.312 291.316C107.312 293.524 106.544 294.548 105.136 294.548C103.728 294.548 102.96 293.524 102.96 291.332C102.96 289.124 103.744 288.1 105.152 288.1ZM117.536 287.108H116.064V293.124C115.552 293.972 114.864 294.58 113.952 294.58C113.04 294.58 112.656 294.148 112.656 292.996V287.108H111.184V293.156C111.184 294.804 112.064 295.732 113.536 295.732C114.736 295.732 115.52 295.252 116.16 294.228L116.272 295.54H117.536V287.108ZM124.451 286.916C123.347 286.916 122.451 287.492 121.875 288.356L121.747 287.108H120.483V295.54H121.955V289.556C122.515 288.66 123.155 288.068 124.099 288.068C124.915 288.068 125.427 288.436 125.427 289.7V295.54H126.899V289.492C126.899 287.892 126.003 286.916 124.451 286.916ZM133.492 294.18C133.076 294.404 132.74 294.516 132.372 294.516C131.636 294.516 131.364 294.116 131.364 293.268V288.244H133.204L133.364 287.108H131.364V285.028L129.892 285.204V287.108H128.42V288.244H129.892V293.332C129.892 294.9 130.74 295.732 132.164 295.732C132.884 295.732 133.492 295.54 134.052 295.156L133.492 294.18Z" fill="#666666"/>
<path d="M53.8154 375.414C51.2714 375.414 49.0314 377.398 49.0314 381.11C49.0314 384.918 50.8074 386.822 53.6554 386.822C55.0634 386.822 56.2154 386.438 57.2554 385.846V380.518H53.6234L53.7994 381.75H55.7514V385.078C55.1274 385.43 54.3914 385.574 53.6554 385.574C51.7194 385.574 50.6474 384.278 50.6474 381.11C50.6474 377.862 52.2314 376.662 53.8154 376.662C54.8074 376.662 55.4634 376.934 56.2314 377.558L57.1274 376.63C56.1834 375.846 55.2714 375.414 53.8154 375.414ZM63.3811 378.006C62.3571 378.006 61.5731 378.646 61.1251 379.91L60.9811 378.198H59.7171V386.63H61.1891V381.814C61.5411 380.198 62.1491 379.446 63.2051 379.446C63.5091 379.446 63.6851 379.478 63.9411 379.542L64.2131 378.102C63.9571 378.038 63.6531 378.006 63.3811 378.006ZM68.7456 378.006C66.3456 378.006 64.9696 379.814 64.9696 382.422C64.9696 385.094 66.3296 386.822 68.7296 386.822C71.1136 386.822 72.4896 385.014 72.4896 382.406C72.4896 379.734 71.1456 378.006 68.7456 378.006ZM68.7456 379.19C70.1376 379.19 70.9056 380.214 70.9056 382.406C70.9056 384.614 70.1376 385.638 68.7296 385.638C67.3216 385.638 66.5536 384.614 66.5536 382.422C66.5536 380.214 67.3376 379.19 68.7456 379.19ZM77.2094 378.006C75.4654 378.006 74.1694 378.982 74.1694 380.326C74.1694 381.51 74.8894 382.294 76.7134 382.774C78.3454 383.206 78.7614 383.526 78.7614 384.358C78.7614 385.158 78.0574 385.638 76.9534 385.638C76.0414 385.638 75.2574 385.334 74.5854 384.822L73.8014 385.718C74.5374 386.358 75.5614 386.822 76.9854 386.822C78.6974 386.822 80.3134 386.022 80.3134 384.262C80.3134 382.79 79.2894 382.086 77.5134 381.638C76.1534 381.286 75.7054 380.966 75.7054 380.278C75.7054 379.606 76.2974 379.174 77.2574 379.174C78.0414 379.174 78.6974 379.414 79.4494 379.894L80.0734 378.966C79.2734 378.358 78.3934 378.006 77.2094 378.006ZM84.5219 378.006C82.7779 378.006 81.4819 378.982 81.4819 380.326C81.4819 381.51 82.2019 382.294 84.0259 382.774C85.6579 383.206 86.0739 383.526 86.0739 384.358C86.0739 385.158 85.3699 385.638 84.2659 385.638C83.3539 385.638 82.5699 385.334 81.8979 384.822L81.1139 385.718C81.8499 386.358 82.8739 386.822 84.2979 386.822C86.0099 386.822 87.6259 386.022 87.6259 384.262C87.6259 382.79 86.6019 382.086 84.8259 381.638C83.4659 381.286 83.0179 380.966 83.0179 380.278C83.0179 379.606 83.6099 379.174 84.5699 379.174C85.3539 379.174 86.0099 379.414 86.7619 379.894L87.3859 378.966C86.5859 378.358 85.7059 378.006 84.5219 378.006Z" fill="#666666"/>
<rect x="46.6333" y="130.542" width="364.221" height="37.6146" rx="18.8073" stroke="#9E9E9E"/>
<path d="M67.2033 147.218C68.4193 146.61 69.0273 145.89 69.0273 144.802C69.0273 142.978 67.3793 142.098 65.7793 142.098C64.1473 142.098 62.5313 143.042 62.5313 144.85C62.5313 145.954 63.0433 146.77 64.1953 147.346C62.8833 147.922 62.0833 148.754 62.0833 150.13C62.0833 151.89 63.5393 153.154 65.7473 153.154C67.9233 153.154 69.4593 151.89 69.4593 150.098C69.4593 148.754 68.6753 147.81 67.2033 147.218ZM65.7793 143.202C66.9473 143.202 67.5873 143.858 67.5873 144.85C67.5873 145.762 67.1873 146.322 66.2273 146.866L65.9553 146.77C64.7233 146.37 63.9713 145.97 63.9713 144.866C63.9713 143.794 64.6753 143.202 65.7793 143.202ZM65.7633 151.986C64.4353 151.986 63.6193 151.298 63.6193 150.13C63.6193 148.962 64.1313 148.226 65.1873 147.714L65.5873 147.858C67.3153 148.45 67.9233 148.962 67.9233 150.114C67.9233 151.234 67.1073 151.986 65.7633 151.986ZM78.2078 149.154H76.8158V146.274H75.5358L75.4078 149.154H72.3678L75.2638 142.61L74.0318 142.098L70.8158 149.266V150.322H75.3918V152.962H76.8158V150.322H78.2078V149.154ZM80.5954 150.93C79.9714 150.93 79.4914 151.426 79.4914 152.034C79.4914 152.658 79.9714 153.154 80.5954 153.154C81.2354 153.154 81.7154 152.658 81.7154 152.034C81.7154 151.426 81.2354 150.93 80.5954 150.93ZM89.1592 142.258H82.9352V143.458H87.6712L83.8152 152.674L85.1592 153.122L89.1592 143.362V142.258ZM96.4163 142.258H90.6243V147.65H91.7763C92.2883 147.41 92.7203 147.282 93.2963 147.282C94.4003 147.282 95.2483 147.858 95.2483 149.506C95.2483 151.074 94.4003 151.954 93.0563 151.954C92.1283 151.954 91.4403 151.618 90.7683 150.946L89.9043 151.794C90.7363 152.642 91.7123 153.154 93.0723 153.154C95.2963 153.154 96.7843 151.666 96.7843 149.538C96.7843 147.41 95.5523 146.146 93.7443 146.146C93.1683 146.146 92.5923 146.274 92.0323 146.562V143.41H96.2083L96.4163 142.258Z" fill="#666666"/>
<rect x="46.6333" y="222.623" width="364.221" height="37.6146" rx="18.8073" stroke="#9E9E9E"/>
<path d="M66.5313 234.339H65.2353L61.9233 236.387L62.5633 237.427L65.0593 235.907V245.043H66.5313V234.339ZM74.1252 239.299C75.3412 238.691 75.9492 237.971 75.9492 236.883C75.9492 235.059 74.3012 234.179 72.7012 234.179C71.0692 234.179 69.4532 235.123 69.4532 236.931C69.4532 238.035 69.9652 238.851 71.1172 239.427C69.8052 240.003 69.0052 240.835 69.0052 242.211C69.0052 243.971 70.4612 245.235 72.6692 245.235C74.8452 245.235 76.3812 243.971 76.3812 242.179C76.3812 240.835 75.5972 239.891 74.1252 239.299ZM72.7012 235.283C73.8692 235.283 74.5092 235.939 74.5092 236.931C74.5092 237.843 74.1092 238.403 73.1492 238.947L72.8772 238.851C71.6452 238.451 70.8932 238.051 70.8932 236.947C70.8932 235.875 71.5972 235.283 72.7012 235.283ZM72.6852 244.067C71.3572 244.067 70.5412 243.379 70.5412 242.211C70.5412 241.043 71.0532 240.307 72.1092 239.795L72.5092 239.939C74.2372 240.531 74.8452 241.043 74.8452 242.195C74.8452 243.315 74.0292 244.067 72.6852 244.067Z" fill="#666666"/>
<path d="M391.499 233.667L384.091 244.867L385.115 245.539L392.523 234.339L391.499 233.667ZM385.003 234.179C383.515 234.179 382.411 235.219 382.411 236.883C382.411 238.547 383.515 239.587 385.003 239.587C386.507 239.587 387.611 238.547 387.611 236.883C387.611 235.219 386.507 234.179 385.003 234.179ZM385.003 235.171C386.043 235.171 386.299 236.051 386.299 236.883C386.299 237.747 386.043 238.595 385.003 238.595C383.979 238.595 383.707 237.715 383.707 236.883C383.707 236.019 383.979 235.171 385.003 235.171ZM391.595 239.827C390.091 239.827 388.987 240.867 388.987 242.531C388.987 244.195 390.091 245.235 391.595 245.235C393.099 245.235 394.187 244.195 394.187 242.531C394.187 240.867 393.099 239.827 391.595 239.827ZM391.595 240.835C392.635 240.835 392.891 241.699 392.891 242.531C392.891 243.395 392.635 244.243 391.595 244.243C390.571 244.243 390.299 243.363 390.299 242.531C390.299 241.667 390.571 240.835 391.595 240.835Z" fill="#666666"/>
<rect x="46.6333" y="314.704" width="364.221" height="37.6146" rx="18.8073" stroke="#9E9E9E" stroke-opacity="0.5"/>
<path d="M66.5313 326.421H65.2353L61.9233 328.469L62.5633 329.509L65.0593 327.989V337.125H66.5313V326.421ZM75.2132 326.421H69.4212V331.813H70.5732C71.0852 331.573 71.5172 331.445 72.0932 331.445C73.1972 331.445 74.0452 332.021 74.0452 333.669C74.0452 335.237 73.1972 336.117 71.8532 336.117C70.9252 336.117 70.2372 335.781 69.5652 335.109L68.7012 335.957C69.5332 336.805 70.5092 337.317 71.8692 337.317C74.0932 337.317 75.5812 335.829 75.5812 333.701C75.5812 331.573 74.3492 330.309 72.5412 330.309C71.9652 330.309 71.3892 330.437 70.8292 330.725V327.573H75.0052L75.2132 326.421ZM78.2048 335.093C77.5808 335.093 77.1008 335.589 77.1008 336.197C77.1008 336.821 77.5808 337.317 78.2048 337.317C78.8448 337.317 79.3248 336.821 79.3248 336.197C79.3248 335.589 78.8448 335.093 78.2048 335.093ZM83.7925 326.261C82.4485 326.261 81.4085 326.805 80.5445 327.877L81.5045 328.645C82.2245 327.829 82.8165 327.477 83.7125 327.477C84.7525 327.477 85.4725 328.133 85.4725 329.253C85.4725 330.997 84.5445 332.021 80.7685 335.957V337.125H87.0885L87.2645 335.893H82.4485C85.7285 332.613 87.0085 331.189 87.0085 329.189C87.0085 327.525 85.7605 326.261 83.7925 326.261ZM94.9944 326.421H89.2024V331.813H90.3544C90.8664 331.573 91.2984 331.445 91.8744 331.445C92.9784 331.445 93.8264 332.021 93.8264 333.669C93.8264 335.237 92.9784 336.117 91.6344 336.117C90.7064 336.117 90.0184 335.781 89.3464 335.109L88.4824 335.957C89.3144 336.805 90.2904 337.317 91.6504 337.317C93.8744 337.317 95.3624 335.829 95.3624 333.701C95.3624 331.573 94.1304 330.309 92.3224 330.309C91.7464 330.309 91.1704 330.437 90.6104 330.725V327.573H94.7864L94.9944 326.421Z" fill="#666666"/>
<rect x="46.6333" y="406.785" width="364.221" height="37.6146" rx="18.8073" stroke="#9E9E9E"/>
<path d="M66.5313 418.502H65.2353L61.9233 420.55L62.5633 421.59L65.0593 420.07V429.206H66.5313V418.502ZM72.7492 418.342C70.3492 418.342 69.1652 420.31 69.1652 423.862C69.1652 427.414 70.3492 429.398 72.7492 429.398C75.1492 429.398 76.3332 427.414 76.3332 423.862C76.3332 420.326 75.1492 418.342 72.7492 418.342ZM72.7492 419.51C74.0772 419.51 74.7972 420.726 74.7972 423.862C74.7972 427.014 74.0772 428.23 72.7492 428.23C71.4052 428.23 70.7012 427.014 70.7012 423.862C70.7012 420.726 71.4052 419.51 72.7492 419.51ZM81.671 418.342C79.271 418.342 78.087 420.31 78.087 423.862C78.087 427.414 79.271 429.398 81.671 429.398C84.071 429.398 85.255 427.414 85.255 423.862C85.255 420.326 84.071 418.342 81.671 418.342ZM81.671 419.51C82.999 419.51 83.719 420.726 83.719 423.862C83.719 427.014 82.999 428.23 81.671 428.23C80.327 428.23 79.623 427.014 79.623 423.862C79.623 420.726 80.327 419.51 81.671 419.51Z" fill="#666666"/>
<path d="M31 44C31 38.4771 35.4772 34 41 34H419.514C425.037 34 429.514 38.4772 429.514 44V85.4862H31V44Z" fill="#F2F2F2"/>
<path d="M181.224 55.562H178.794L176.166 65.894L173.466 55.562H170.91L174.708 68H177.534L181.224 55.562ZM188.925 68H191.445L187.593 55.562H184.659L180.789 68H183.255L184.029 65.12H188.151L188.925 68ZM184.497 63.32L186.081 57.38L187.665 63.32H184.497ZM199.927 55.562H190.693V57.452H194.041V68H196.435V57.452H199.675L199.927 55.562ZM210.731 55.292C207.671 55.292 205.295 57.578 205.295 61.754C205.295 65.984 207.545 68.27 210.767 68.27C212.459 68.27 213.755 67.532 214.511 66.758L213.395 65.354C212.675 65.894 211.937 66.362 210.857 66.362C209.093 66.362 207.797 65.03 207.797 61.754C207.797 58.388 209.129 57.128 210.857 57.128C211.703 57.128 212.441 57.434 213.161 58.01L214.367 56.606C213.341 55.76 212.315 55.292 210.731 55.292ZM223 65.48V61.484C223 59.378 221.884 58.208 219.346 58.208C218.266 58.208 217.06 58.442 215.89 58.892L216.43 60.458C217.384 60.134 218.302 59.954 218.95 59.954C220.174 59.954 220.732 60.368 220.732 61.61V62.15H219.544C216.772 62.15 215.206 63.266 215.206 65.336C215.206 67.064 216.376 68.27 218.284 68.27C219.418 68.27 220.462 67.856 221.128 66.848C221.506 67.766 222.19 68.144 223.234 68.234L223.72 66.704C223.252 66.524 223 66.254 223 65.48ZM218.896 66.596C218.014 66.596 217.546 66.074 217.546 65.156C217.546 64.04 218.284 63.5 219.778 63.5H220.732V65.426C220.3 66.182 219.706 66.596 218.896 66.596ZM227.843 68.27C228.437 68.27 228.995 68.126 229.391 67.946L228.887 66.326C228.743 66.38 228.563 66.416 228.365 66.416C227.969 66.416 227.825 66.2 227.825 65.75V54.41L225.521 54.662V65.822C225.521 67.388 226.385 68.27 227.843 68.27ZM234.755 58.208C232.019 58.208 230.309 60.278 230.309 63.32C230.309 66.362 232.019 68.27 234.773 68.27C235.997 68.27 236.987 67.874 237.851 67.172L236.825 65.714C236.123 66.164 235.619 66.398 234.899 66.398C233.603 66.398 232.757 65.588 232.757 63.284C232.757 60.998 233.567 60.026 234.899 60.026C235.619 60.026 236.195 60.242 236.825 60.71L237.851 59.324C236.951 58.55 235.997 58.208 234.755 58.208ZM246.883 58.478H244.579V65.174C244.093 66.002 243.445 66.524 242.653 66.524C241.861 66.524 241.501 66.146 241.501 65.03V58.478H239.197V65.318C239.197 67.154 240.115 68.27 241.843 68.27C243.157 68.27 244.057 67.748 244.759 66.668L244.885 68H246.883V58.478ZM251.802 68.27C252.396 68.27 252.954 68.126 253.35 67.946L252.846 66.326C252.702 66.38 252.522 66.416 252.324 66.416C251.928 66.416 251.784 66.2 251.784 65.75V54.41L249.48 54.662V65.822C249.48 67.388 250.344 68.27 251.802 68.27ZM261.918 65.48V61.484C261.918 59.378 260.802 58.208 258.264 58.208C257.184 58.208 255.978 58.442 254.808 58.892L255.348 60.458C256.302 60.134 257.22 59.954 257.868 59.954C259.092 59.954 259.65 60.368 259.65 61.61V62.15H258.462C255.69 62.15 254.124 63.266 254.124 65.336C254.124 67.064 255.294 68.27 257.202 68.27C258.336 68.27 259.38 67.856 260.046 66.848C260.424 67.766 261.108 68.144 262.152 68.234L262.638 66.704C262.17 66.524 261.918 66.254 261.918 65.48ZM257.814 66.596C256.932 66.596 256.464 66.074 256.464 65.156C256.464 64.04 257.202 63.5 258.696 63.5H259.65V65.426C259.218 66.182 258.624 66.596 257.814 66.596ZM269.35 66.074C268.936 66.308 268.576 66.416 268.216 66.416C267.514 66.416 267.208 66.038 267.208 65.102V60.134H269.188L269.422 58.478H267.208V56.102L264.904 56.372V58.478H263.41V60.134H264.904V65.156C264.904 67.19 265.894 68.252 267.766 68.27C268.612 68.27 269.476 68.036 270.16 67.55L269.35 66.074ZM275.045 58.208C272.219 58.208 270.545 60.242 270.545 63.23C270.545 66.362 272.219 68.27 275.027 68.27C277.835 68.27 279.509 66.236 279.509 63.23C279.509 60.116 277.853 58.208 275.045 58.208ZM275.045 59.954C276.377 59.954 277.079 60.962 277.079 63.23C277.079 65.498 276.377 66.524 275.027 66.524C273.677 66.524 272.975 65.516 272.975 63.23C272.975 60.98 273.695 59.954 275.045 59.954ZM286.331 58.226C285.215 58.226 284.297 58.982 283.847 60.35L283.631 58.478H281.633V68H283.937V62.924C284.297 61.322 284.891 60.476 286.043 60.476C286.385 60.476 286.601 60.512 286.889 60.584L287.285 58.352C286.979 58.262 286.673 58.226 286.331 58.226Z" fill="#293961"/>
<g filter="url(#filter2_d_73_2010)">
<rect x="352" y="165" width="241" height="238" rx="10" fill="white"/>
</g>
<path d="M405.71 228.354H404.38V238H405.71V228.354ZM411.869 230.454C410.903 230.454 410.119 230.958 409.615 231.714L409.503 230.622H408.397V238H409.685V232.764C410.175 231.98 410.735 231.462 411.561 231.462C412.275 231.462 412.723 231.784 412.723 232.89V238H414.011V232.708C414.011 231.308 413.227 230.454 411.869 230.454ZM419.235 230.454C417.233 230.454 416.015 232.022 416.015 234.374C416.015 236.754 417.247 238.168 419.235 238.168C420.089 238.168 420.831 237.888 421.489 237.356L420.901 236.516C420.341 236.88 419.907 237.076 419.291 237.076C418.129 237.076 417.401 236.278 417.401 234.346C417.401 232.428 418.129 231.518 419.291 231.518C419.907 231.518 420.369 231.7 420.873 232.064L421.489 231.252C420.803 230.678 420.103 230.454 419.235 230.454ZM425.786 230.454C423.686 230.454 422.482 232.036 422.482 234.318C422.482 236.656 423.672 238.168 425.772 238.168C427.858 238.168 429.062 236.586 429.062 234.304C429.062 231.966 427.886 230.454 425.786 230.454ZM425.786 231.49C427.004 231.49 427.676 232.386 427.676 234.304C427.676 236.236 427.004 237.132 425.772 237.132C424.54 237.132 423.868 236.236 423.868 234.318C423.868 232.386 424.554 231.49 425.786 231.49ZM438.553 230.454C437.559 230.454 436.887 230.986 436.355 231.784C436.075 230.944 435.403 230.454 434.493 230.454C433.527 230.454 432.855 230.958 432.365 231.7L432.253 230.622H431.147V238H432.435V232.764C432.925 231.98 433.373 231.462 434.171 231.462C434.731 231.462 435.207 231.784 435.207 232.89V238H436.495V232.764C436.999 231.98 437.433 231.462 438.231 231.462C438.791 231.462 439.267 231.784 439.267 232.89V238H440.555V232.708C440.555 231.322 439.757 230.454 438.553 230.454ZM448.656 234.094C448.656 231.84 447.606 230.454 445.618 230.454C443.714 230.454 442.552 232.092 442.552 234.388C442.552 236.726 443.756 238.168 445.814 238.168C446.836 238.168 447.662 237.818 448.39 237.244L447.83 236.474C447.186 236.922 446.64 237.118 445.912 237.118C444.848 237.118 444.05 236.46 443.924 234.752H448.628C448.642 234.584 448.656 234.346 448.656 234.094ZM447.382 233.8H443.924C444.022 232.162 444.666 231.476 445.646 231.476C446.808 231.476 447.382 232.274 447.382 233.716V233.8ZM460.172 228.354H453.284V229.488H456.028V238H457.358V229.488H460.032L460.172 228.354ZM465.909 236.278V232.904C465.909 231.364 465.097 230.454 463.319 230.454C462.493 230.454 461.681 230.622 460.771 230.958L461.093 231.896C461.849 231.644 462.535 231.504 463.081 231.504C464.103 231.504 464.621 231.896 464.621 232.96V233.506H463.487C461.429 233.506 460.239 234.36 460.239 235.942C460.239 237.258 461.121 238.168 462.591 238.168C463.487 238.168 464.271 237.832 464.789 237.062C465.013 237.79 465.489 238.084 466.231 238.168L466.525 237.272C466.147 237.132 465.909 236.922 465.909 236.278ZM462.885 237.202C462.045 237.202 461.611 236.74 461.611 235.872C461.611 234.864 462.297 234.36 463.655 234.36H464.621V236.054C464.201 236.824 463.641 237.202 462.885 237.202ZM471.383 234.052L473.651 230.622H472.195L470.641 233.324L469.101 230.622H467.589L469.871 234.108L467.295 238H468.751L470.585 234.878L472.391 238H473.945L471.383 234.052Z" fill="#293961"/>
<ellipse cx="383.874" cy="233.014" rx="6.05338" ry="5.94071" fill="#DAE0EF"/>
<path d="M405.934 276.354H403.4V286H404.73V282.458H405.948C408.076 282.458 409.686 281.548 409.686 279.336C409.686 277.306 408.258 276.354 405.934 276.354ZM405.892 281.408H404.73V277.39H405.92C407.348 277.39 408.272 277.908 408.272 279.35C408.272 280.988 407.32 281.408 405.892 281.408ZM414.465 278.454C413.569 278.454 412.883 279.014 412.491 280.12L412.365 278.622H411.259V286H412.547V281.786C412.855 280.372 413.387 279.714 414.311 279.714C414.577 279.714 414.731 279.742 414.955 279.798L415.193 278.538C414.969 278.482 414.703 278.454 414.465 278.454ZM419.159 278.454C417.059 278.454 415.855 280.036 415.855 282.318C415.855 284.656 417.045 286.168 419.145 286.168C421.231 286.168 422.435 284.586 422.435 282.304C422.435 279.966 421.259 278.454 419.159 278.454ZM419.159 279.49C420.377 279.49 421.049 280.386 421.049 282.304C421.049 284.236 420.377 285.132 419.145 285.132C417.913 285.132 417.241 284.236 417.241 282.318C417.241 280.386 417.927 279.49 419.159 279.49ZM427.096 275.5C425.304 275.5 424.548 276.41 424.548 277.656V278.622H423.372V279.616H424.548V286H425.836V279.616H428.664V286H429.952V278.622H425.836V277.642C425.836 276.942 426.102 276.55 427.138 276.55C427.712 276.55 428.23 276.676 428.692 276.9L429.14 276.004C428.538 275.696 427.922 275.5 427.096 275.5ZM435.808 284.81C435.444 285.006 435.15 285.104 434.828 285.104C434.184 285.104 433.946 284.754 433.946 284.012V279.616H435.556L435.696 278.622H433.946V276.802L432.658 276.956V278.622H431.37V279.616H432.658V284.068C432.658 285.44 433.4 286.168 434.646 286.168C435.276 286.168 435.808 286 436.298 285.664L435.808 284.81ZM447.106 276.354H440.218V277.488H442.962V286H444.292V277.488H446.966L447.106 276.354ZM452.843 284.278V280.904C452.843 279.364 452.031 278.454 450.253 278.454C449.427 278.454 448.615 278.622 447.705 278.958L448.027 279.896C448.783 279.644 449.469 279.504 450.015 279.504C451.037 279.504 451.555 279.896 451.555 280.96V281.506H450.421C448.363 281.506 447.173 282.36 447.173 283.942C447.173 285.258 448.055 286.168 449.525 286.168C450.421 286.168 451.205 285.832 451.723 285.062C451.947 285.79 452.423 286.084 453.165 286.168L453.459 285.272C453.081 285.132 452.843 284.922 452.843 284.278ZM449.819 285.202C448.979 285.202 448.545 284.74 448.545 283.872C448.545 282.864 449.231 282.36 450.589 282.36H451.555V284.054C451.135 284.824 450.575 285.202 449.819 285.202ZM458.316 282.052L460.584 278.622H459.128L457.574 281.324L456.034 278.622H454.522L456.804 282.108L454.228 286H455.684L457.518 282.878L459.324 286H460.878L458.316 282.052Z" fill="#293961"/>
<ellipse cx="383.874" cy="279.549" rx="6.05338" ry="5.94071" fill="#DAE0EF"/>
<path d="M408.656 327.904C409.594 327.708 410.462 326.98 410.462 325.79C410.462 324.11 409.062 323.354 406.682 323.354H404.4V333H407.06C409.3 333 410.882 332.3 410.882 330.256C410.882 328.618 409.776 328.1 408.656 327.904ZM406.822 324.404C408.25 324.404 409.104 324.698 409.104 325.888C409.104 326.91 408.264 327.442 407.186 327.442H405.73V324.404H406.822ZM407.06 331.936H405.73V328.464H407.312C408.474 328.464 409.482 328.898 409.482 330.256C409.482 331.656 408.46 331.936 407.06 331.936ZM416.012 325.454C415.116 325.454 414.43 326.014 414.038 327.12L413.912 325.622H412.806V333H414.094V328.786C414.402 327.372 414.934 326.714 415.858 326.714C416.124 326.714 416.278 326.742 416.502 326.798L416.74 325.538C416.516 325.482 416.25 325.454 416.012 325.454ZM423.506 329.094C423.506 326.84 422.456 325.454 420.468 325.454C418.564 325.454 417.402 327.092 417.402 329.388C417.402 331.726 418.606 333.168 420.664 333.168C421.686 333.168 422.512 332.818 423.24 332.244L422.68 331.474C422.036 331.922 421.49 332.118 420.762 332.118C419.698 332.118 418.9 331.46 418.774 329.752H423.478C423.492 329.584 423.506 329.346 423.506 329.094ZM422.232 328.8H418.774C418.872 327.162 419.516 326.476 420.496 326.476C421.658 326.476 422.232 327.274 422.232 328.716V328.8ZM430.45 331.278V327.904C430.45 326.364 429.638 325.454 427.86 325.454C427.034 325.454 426.222 325.622 425.312 325.958L425.634 326.896C426.39 326.644 427.076 326.504 427.622 326.504C428.644 326.504 429.162 326.896 429.162 327.96V328.506H428.028C425.97 328.506 424.78 329.36 424.78 330.942C424.78 332.258 425.662 333.168 427.132 333.168C428.028 333.168 428.812 332.832 429.33 332.062C429.554 332.79 430.03 333.084 430.772 333.168L431.066 332.272C430.688 332.132 430.45 331.922 430.45 331.278ZM427.426 332.202C426.586 332.202 426.152 331.74 426.152 330.872C426.152 329.864 426.838 329.36 428.196 329.36H429.162V331.054C428.742 331.824 428.182 332.202 427.426 332.202ZM434.342 322.5L433.054 322.654V333H434.342V322.5ZM438.584 325.622H437.142L434.426 328.968L437.352 333H438.892L435.868 328.884L438.584 325.622ZM439.236 329.164H443.198V328.072H439.236V329.164ZM450.665 323.354H445.443V333H450.777V331.936H446.773V328.632H450.021V327.568H446.773V324.418H450.511L450.665 323.354ZM458.01 325.622H456.652L454.734 331.852L452.802 325.622H451.402L453.95 333H455.504L458.01 325.622ZM465 329.094C465 326.84 463.95 325.454 461.962 325.454C460.058 325.454 458.896 327.092 458.896 329.388C458.896 331.726 460.1 333.168 462.158 333.168C463.18 333.168 464.006 332.818 464.734 332.244L464.174 331.474C463.53 331.922 462.984 332.118 462.256 332.118C461.192 332.118 460.394 331.46 460.268 329.752H464.972C464.986 329.584 465 329.346 465 329.094ZM463.726 328.8H460.268C460.366 327.162 461.01 326.476 461.99 326.476C463.152 326.476 463.726 327.274 463.726 328.716V328.8ZM470.473 325.454C469.507 325.454 468.723 325.958 468.219 326.714L468.107 325.622H467.001V333H468.289V327.764C468.779 326.98 469.339 326.462 470.165 326.462C470.879 326.462 471.327 326.784 471.327 327.89V333H472.615V327.708C472.615 326.308 471.831 325.454 470.473 325.454ZM481.459 323.354H478.925V333H480.255V329.458H481.473C483.601 329.458 485.211 328.548 485.211 326.336C485.211 324.306 483.783 323.354 481.459 323.354ZM481.417 328.408H480.255V324.39H481.445C482.873 324.39 483.797 324.908 483.797 326.35C483.797 327.988 482.845 328.408 481.417 328.408ZM489.448 325.454C487.348 325.454 486.144 327.036 486.144 329.318C486.144 331.656 487.334 333.168 489.434 333.168C491.52 333.168 492.724 331.586 492.724 329.304C492.724 326.966 491.548 325.454 489.448 325.454ZM489.448 326.49C490.666 326.49 491.338 327.386 491.338 329.304C491.338 331.236 490.666 332.132 489.434 332.132C488.202 332.132 487.53 331.236 487.53 329.318C487.53 327.386 488.216 326.49 489.448 326.49ZM495.439 322.08C494.907 322.08 494.543 322.458 494.543 322.962C494.543 323.452 494.907 323.83 495.439 323.83C495.985 323.83 496.349 323.452 496.349 322.962C496.349 322.458 495.985 322.08 495.439 322.08ZM496.097 325.622H494.809V333H496.097V325.622ZM502.151 325.454C501.185 325.454 500.401 325.958 499.897 326.714L499.785 325.622H498.679V333H499.967V327.764C500.457 326.98 501.017 326.462 501.843 326.462C502.557 326.462 503.005 326.784 503.005 327.89V333H504.293V327.708C504.293 326.308 503.509 325.454 502.151 325.454ZM510.062 331.81C509.698 332.006 509.404 332.104 509.082 332.104C508.438 332.104 508.2 331.754 508.2 331.012V326.616H509.81L509.95 325.622H508.2V323.802L506.912 323.956V325.622H505.624V326.616H506.912V331.068C506.912 332.44 507.654 333.168 508.9 333.168C509.53 333.168 510.062 333 510.552 332.664L510.062 331.81Z" fill="#293961"/>
<ellipse cx="383.874" cy="329.055" rx="6.05338" ry="5.94071" fill="#DAE0EF"/>
<path d="M408.956 371.186C406.73 371.186 404.77 372.922 404.77 376.17C404.77 379.502 406.324 381.168 408.816 381.168C410.048 381.168 411.056 380.832 411.966 380.314V375.652H408.788L408.942 376.73H410.65V379.642C410.104 379.95 409.46 380.076 408.816 380.076C407.122 380.076 406.184 378.942 406.184 376.17C406.184 373.328 407.57 372.278 408.956 372.278C409.824 372.278 410.398 372.516 411.07 373.062L411.854 372.25C411.028 371.564 410.23 371.186 408.956 371.186ZM417.326 373.454C416.43 373.454 415.744 374.014 415.352 375.12L415.226 373.622H414.12V381H415.408V376.786C415.716 375.372 416.248 374.714 417.172 374.714C417.438 374.714 417.592 374.742 417.816 374.798L418.054 373.538C417.83 373.482 417.564 373.454 417.326 373.454ZM422.02 373.454C419.92 373.454 418.716 375.036 418.716 377.318C418.716 379.656 419.906 381.168 422.006 381.168C424.092 381.168 425.296 379.586 425.296 377.304C425.296 374.966 424.12 373.454 422.02 373.454ZM422.02 374.49C423.238 374.49 423.91 375.386 423.91 377.304C423.91 379.236 423.238 380.132 422.006 380.132C420.774 380.132 420.102 379.236 420.102 377.318C420.102 375.386 420.788 374.49 422.02 374.49ZM429.426 373.454C427.9 373.454 426.766 374.308 426.766 375.484C426.766 376.52 427.396 377.206 428.992 377.626C430.42 378.004 430.784 378.284 430.784 379.012C430.784 379.712 430.168 380.132 429.202 380.132C428.404 380.132 427.718 379.866 427.13 379.418L426.444 380.202C427.088 380.762 427.984 381.168 429.23 381.168C430.728 381.168 432.142 380.468 432.142 378.928C432.142 377.64 431.246 377.024 429.692 376.632C428.502 376.324 428.11 376.044 428.11 375.442C428.11 374.854 428.628 374.476 429.468 374.476C430.154 374.476 430.728 374.686 431.386 375.106L431.932 374.294C431.232 373.762 430.462 373.454 429.426 373.454ZM435.824 373.454C434.298 373.454 433.164 374.308 433.164 375.484C433.164 376.52 433.794 377.206 435.39 377.626C436.818 378.004 437.182 378.284 437.182 379.012C437.182 379.712 436.566 380.132 435.6 380.132C434.802 380.132 434.116 379.866 433.528 379.418L432.842 380.202C433.486 380.762 434.382 381.168 435.628 381.168C437.126 381.168 438.54 380.468 438.54 378.928C438.54 377.64 437.644 377.024 436.09 376.632C434.9 376.324 434.508 376.044 434.508 375.442C434.508 374.854 435.026 374.476 435.866 374.476C436.552 374.476 437.126 374.686 437.784 375.106L438.33 374.294C437.63 373.762 436.86 373.454 435.824 373.454ZM446.666 371.354H444.132V381H445.462V377.458H446.68C448.808 377.458 450.418 376.548 450.418 374.336C450.418 372.306 448.99 371.354 446.666 371.354ZM446.624 376.408H445.462V372.39H446.652C448.08 372.39 449.004 372.908 449.004 374.35C449.004 375.988 448.052 376.408 446.624 376.408ZM455.197 373.454C454.301 373.454 453.615 374.014 453.223 375.12L453.097 373.622H451.991V381H453.279V376.786C453.587 375.372 454.119 374.714 455.043 374.714C455.309 374.714 455.463 374.742 455.687 374.798L455.925 373.538C455.701 373.482 455.435 373.454 455.197 373.454ZM459.891 373.454C457.791 373.454 456.587 375.036 456.587 377.318C456.587 379.656 457.777 381.168 459.877 381.168C461.963 381.168 463.167 379.586 463.167 377.304C463.167 374.966 461.991 373.454 459.891 373.454ZM459.891 374.49C461.109 374.49 461.781 375.386 461.781 377.304C461.781 379.236 461.109 380.132 459.877 380.132C458.645 380.132 457.973 379.236 457.973 377.318C457.973 375.386 458.659 374.49 459.891 374.49ZM467.829 370.5C466.037 370.5 465.281 371.41 465.281 372.656V373.622H464.105V374.616H465.281V381H466.569V374.616H469.397V381H470.685V373.622H466.569V372.642C466.569 371.942 466.835 371.55 467.871 371.55C468.445 371.55 468.963 371.676 469.425 371.9L469.873 371.004C469.271 370.696 468.655 370.5 467.829 370.5ZM476.541 379.81C476.177 380.006 475.883 380.104 475.561 380.104C474.917 380.104 474.679 379.754 474.679 379.012V374.616H476.289L476.429 373.622H474.679V371.802L473.391 371.956V373.622H472.103V374.616H473.391V379.068C473.391 380.44 474.133 381.168 475.379 381.168C476.009 381.168 476.541 381 477.031 380.664L476.541 379.81ZM489.966 371.354H488.16L486.228 378.368L484.198 371.354H482.406L481.608 381H482.868L483.19 376.744C483.302 375.33 483.372 373.832 483.372 372.698L485.57 379.908H486.816L488.902 372.712C488.916 373.51 489.014 375.134 489.14 376.646L489.476 381H490.764L489.966 371.354ZM497.937 379.278V375.904C497.937 374.364 497.125 373.454 495.347 373.454C494.521 373.454 493.709 373.622 492.799 373.958L493.121 374.896C493.877 374.644 494.563 374.504 495.109 374.504C496.131 374.504 496.649 374.896 496.649 375.96V376.506H495.515C493.457 376.506 492.267 377.36 492.267 378.942C492.267 380.258 493.149 381.168 494.619 381.168C495.515 381.168 496.299 380.832 496.817 380.062C497.041 380.79 497.517 381.084 498.259 381.168L498.553 380.272C498.175 380.132 497.937 379.922 497.937 379.278ZM494.913 380.202C494.073 380.202 493.639 379.74 493.639 378.872C493.639 377.864 494.325 377.36 495.683 377.36H496.649V379.054C496.229 379.824 495.669 380.202 494.913 380.202ZM503.746 373.454C502.85 373.454 502.164 374.014 501.772 375.12L501.646 373.622H500.54V381H501.828V376.786C502.136 375.372 502.668 374.714 503.592 374.714C503.858 374.714 504.012 374.742 504.236 374.798L504.474 373.538C504.25 373.482 503.984 373.454 503.746 373.454ZM511.308 372.796C510.44 373.188 509.768 373.496 507.934 373.454C506.31 373.454 505.092 374.518 505.092 376.03C505.092 376.982 505.484 377.626 506.338 378.074C505.806 378.424 505.526 378.9 505.526 379.376C505.526 380.118 506.114 380.776 507.43 380.776H508.592C509.516 380.776 510.076 381.126 510.076 381.826C510.076 382.568 509.516 382.974 507.92 382.974C506.296 382.974 505.918 382.582 505.918 381.742H504.756C504.756 383.24 505.512 383.982 507.92 383.982C510.202 383.982 511.378 383.17 511.378 381.742C511.378 380.566 510.37 379.698 508.858 379.698H507.682C506.926 379.698 506.716 379.432 506.716 379.096C506.716 378.83 506.87 378.564 507.08 378.41C507.388 378.508 507.682 378.55 508.018 378.55C509.782 378.55 510.832 377.5 510.832 376.044C510.832 375.19 510.398 374.574 509.53 374.182C510.37 374.182 511.07 374.154 511.686 373.958L511.308 372.796ZM507.934 374.378C508.984 374.378 509.516 374.938 509.516 376.016C509.516 377.08 508.97 377.696 507.962 377.696C506.954 377.696 506.408 377.01 506.408 376.03C506.408 375.064 506.94 374.378 507.934 374.378ZM513.598 370.08C513.066 370.08 512.702 370.458 512.702 370.962C512.702 371.452 513.066 371.83 513.598 371.83C514.144 371.83 514.508 371.452 514.508 370.962C514.508 370.458 514.144 370.08 513.598 370.08ZM514.256 373.622H512.968V381H514.256V373.622ZM520.309 373.454C519.343 373.454 518.559 373.958 518.055 374.714L517.943 373.622H516.837V381H518.125V375.764C518.615 374.98 519.175 374.462 520.001 374.462C520.715 374.462 521.163 374.784 521.163 375.89V381H522.451V375.708C522.451 374.308 521.667 373.454 520.309 373.454Z" fill="#293961"/>
<ellipse cx="383.874" cy="376.581" rx="6.05338" ry="5.94071" fill="#DAE0EF"/>
<path d="M352 175C352 169.477 356.477 165 362 165H583C588.523 165 593 169.477 593 175V207H352V175Z" fill="#F2F2F2"/>
<path d="M382.664 180.655C380.228 180.655 378.352 182.447 378.352 185.709C378.352 189.013 380.116 190.791 382.706 190.791C384.036 190.791 385.058 190.203 385.674 189.573L384.722 188.383C384.162 188.817 383.588 189.167 382.79 189.167C381.446 189.167 380.522 188.145 380.522 185.709C380.522 183.189 381.474 182.209 382.776 182.209C383.434 182.209 383.994 182.447 384.54 182.895L385.562 181.705C384.75 181.033 383.924 180.655 382.664 180.655ZM393.732 188.509V185.513C393.732 183.833 392.85 182.923 390.792 182.923C389.952 182.923 388.972 183.105 388.048 183.469L388.496 184.799C389.252 184.547 389.966 184.407 390.456 184.407C391.394 184.407 391.786 184.701 391.786 185.625V185.989H390.932C388.734 185.989 387.516 186.871 387.516 188.495C387.516 189.839 388.44 190.791 389.924 190.791C390.806 190.791 391.618 190.483 392.15 189.671C392.458 190.413 393.018 190.693 393.858 190.763L394.278 189.447C393.914 189.321 393.732 189.111 393.732 188.509ZM390.47 189.363C389.854 189.363 389.518 188.985 389.518 188.327C389.518 187.515 390.05 187.123 391.128 187.123H391.786V188.537C391.478 189.069 391.044 189.363 390.47 189.363ZM398.828 190.791C399.332 190.791 399.78 190.679 400.102 190.539L399.696 189.125C399.584 189.181 399.458 189.209 399.304 189.209C399.01 189.209 398.898 189.041 398.898 188.719V179.969L396.91 180.193V188.775C396.91 190.063 397.624 190.791 398.828 190.791ZM405.618 182.923C403.448 182.923 402.076 184.561 402.076 186.913C402.076 189.279 403.434 190.791 405.646 190.791C406.626 190.791 407.41 190.469 408.082 189.923L407.214 188.677C406.668 189.027 406.29 189.195 405.744 189.195C404.806 189.195 404.176 188.621 404.176 186.899C404.176 185.177 404.764 184.463 405.758 184.463C406.304 184.463 406.738 184.631 407.214 184.995L408.082 183.819C407.382 183.217 406.612 182.923 405.618 182.923ZM416.507 183.147H414.519V188.341C414.169 188.943 413.707 189.307 413.161 189.307C412.615 189.307 412.349 189.041 412.349 188.229V183.147H410.361V188.481C410.361 189.909 411.061 190.791 412.433 190.791C413.427 190.791 414.141 190.399 414.687 189.573L414.785 190.567H416.507V183.147ZM421.663 190.791C422.167 190.791 422.615 190.679 422.937 190.539L422.531 189.125C422.419 189.181 422.293 189.209 422.139 189.209C421.845 189.209 421.733 189.041 421.733 188.719V179.969L419.745 180.193V188.775C419.745 190.063 420.459 190.791 421.663 190.791ZM431.029 188.509V185.513C431.029 183.833 430.147 182.923 428.089 182.923C427.249 182.923 426.269 183.105 425.345 183.469L425.793 184.799C426.549 184.547 427.263 184.407 427.753 184.407C428.691 184.407 429.083 184.701 429.083 185.625V185.989H428.229C426.031 185.989 424.813 186.871 424.813 188.495C424.813 189.839 425.737 190.791 427.221 190.791C428.103 190.791 428.915 190.483 429.447 189.671C429.755 190.413 430.315 190.693 431.155 190.763L431.575 189.447C431.211 189.321 431.029 189.111 431.029 188.509ZM427.767 189.363C427.151 189.363 426.815 188.985 426.815 188.327C426.815 187.515 427.347 187.123 428.425 187.123H429.083V188.537C428.775 189.069 428.341 189.363 427.767 189.363ZM438.167 188.957C437.859 189.125 437.593 189.209 437.327 189.209C436.823 189.209 436.585 188.929 436.585 188.201V184.547H438.097L438.293 183.147H436.585V181.285L434.597 181.523V183.147H433.491V184.547H434.597V188.243C434.597 189.895 435.381 190.777 436.921 190.791C437.579 190.791 438.307 190.595 438.853 190.217L438.167 188.957ZM444.023 182.923C441.783 182.923 440.453 184.491 440.453 186.857C440.453 189.321 441.797 190.791 444.009 190.791C446.235 190.791 447.565 189.209 447.565 186.857C447.565 184.393 446.235 182.923 444.023 182.923ZM444.023 184.407C444.989 184.407 445.493 185.149 445.493 186.857C445.493 188.551 444.989 189.307 444.009 189.307C443.029 189.307 442.525 188.565 442.525 186.857C442.525 185.163 443.029 184.407 444.023 184.407ZM454.284 182.937C453.43 182.937 452.702 183.553 452.352 184.589L452.184 183.147H450.448V190.567H452.436V186.773C452.688 185.555 453.122 184.869 454.032 184.869C454.284 184.869 454.466 184.911 454.704 184.967L455.026 183.049C454.788 182.979 454.55 182.937 454.284 182.937ZM459.714 182.923C457.922 182.923 456.774 183.875 456.774 185.135C456.774 186.255 457.474 186.997 458.972 187.417C460.344 187.795 460.61 187.977 460.61 188.537C460.61 189.041 460.134 189.349 459.392 189.349C458.65 189.349 457.964 189.055 457.404 188.621L456.424 189.713C457.124 190.357 458.16 190.791 459.448 190.791C461.212 190.791 462.654 189.923 462.654 188.383C462.654 187.067 461.814 186.451 460.33 186.045C459.028 185.667 458.776 185.471 458.776 185.037C458.776 184.631 459.14 184.365 459.798 184.365C460.442 184.365 461.044 184.575 461.646 184.953L462.402 183.819C461.702 183.259 460.792 182.923 459.714 182.923Z" fill="#293961"/>
<path d="M562.384 182.518L567.786 186.802L573.189 182.518L574.849 183.837L571.318 186.643L567.786 189.449L560.724 183.837L562.384 182.518Z" fill="#293961"/>
<defs>
<filter id="filter0_b_73_2010" x="-20" y="-20" width="664" height="606" filterUnits="userSpaceOnUse" color-interpolation-filters="sRGB">
<feFlood flood-opacity="0" result="BackgroundImageFix"/>
<feGaussianBlur in="BackgroundImage" stdDeviation="10"/>
<feComposite in2="SourceAlpha" operator="in" result="effect1_backgroundBlur_73_2010"/>
<feBlend mode="normal" in="SourceGraphic" in2="effect1_backgroundBlur_73_2010" result="shape"/>
</filter>
<filter id="filter1_d_73_2010" x="11" y="24" width="438.514" height="541" filterUnits="userSpaceOnUse" color-interpolation-filters="sRGB">
<feFlood flood-opacity="0" result="BackgroundImageFix"/>
<feColorMatrix in="SourceAlpha" type="matrix" values="0 0 0 0 0 0 0 0 0 0 0 0 0 0 0 0 0 0 127 0" result="hardAlpha"/>
<feOffset dy="10"/>
<feGaussianBlur stdDeviation="10"/>
<feComposite in2="hardAlpha" operator="out"/>
<feColorMatrix type="matrix" values="0 0 0 0 0.478431 0 0 0 0 0.568627 0 0 0 0 0.788235 0 0 0 0.3 0"/>
<feBlend mode="normal" in2="BackgroundImageFix" result="effect1_dropShadow_73_2010"/>
<feBlend mode="normal" in="SourceGraphic" in2="effect1_dropShadow_73_2010" result="shape"/>
</filter>
<filter id="filter2_d_73_2010" x="332" y="155" width="281" height="278" filterUnits="userSpaceOnUse" color-interpolation-filters="sRGB">
<feFlood flood-opacity="0" result="BackgroundImageFix"/>
<feColorMatrix in="SourceAlpha" type="matrix" values="0 0 0 0 0 0 0 0 0 0 0 0 0 0 0 0 0 0 127 0" result="hardAlpha"/>
<feOffset dy="10"/>
<feGaussianBlur stdDeviation="10"/>
<feComposite in2="hardAlpha" operator="out"/>
<feColorMatrix type="matrix" values="0 0 0 0 0.478431 0 0 0 0 0.568627 0 0 0 0 0.788235 0 0 0 0.5 0"/>
<feBlend mode="normal" in2="BackgroundImageFix" result="effect1_dropShadow_73_2010"/>
<feBlend mode="normal" in="SourceGraphic" in2="effect1_dropShadow_73_2010" result="shape"/>
</filter>
<radialGradient id="paint0_radial_73_2010" cx="0" cy="0" r="1" gradientUnits="userSpaceOnUse" gradientTransform="translate(368 163) rotate(90) scale(134 228)">
<stop stop-color="#BCE1FF" stop-opacity="0.8"/>
<stop offset="1" stop-color="white" stop-opacity="0"/>
</radialGradient>
<linearGradient id="paint1_linear_73_2010" x1="0" y1="0" x2="738.465" y2="350.179" gradientUnits="userSpaceOnUse">
<stop stop-color="white" stop-opacity="0.4"/>
<stop offset="1" stop-color="white" stop-opacity="0.1"/>
</linearGradient>
</defs>
</svg>
