<svg width="11" height="8" viewBox="0 0 11 8" fill="none" xmlns="http://www.w3.org/2000/svg">
<path d="M5.49137 7.9973C5.30811 7.99782 5.13051 7.90487 4.98939 7.73458L0.283345 2.02324C0.12317 1.82936 0.022441 1.55074 0.00331894 1.2487C-0.0158031 0.946653 0.0482477 0.645916 0.181381 0.412646C0.314514 0.179376 0.505824 0.0326817 0.713224 0.00483352C0.920625 -0.0230146 1.12713 0.0702645 1.2873 0.264151L5.49137 5.38151L9.69544 0.446915C9.77567 0.352031 9.86799 0.281174 9.96708 0.238417C10.0662 0.19566 10.1701 0.181846 10.2729 0.197768C10.3756 0.213691 10.4752 0.259035 10.5659 0.331196C10.6566 0.403358 10.7366 0.500913 10.8014 0.618254C10.8732 0.735704 10.9276 0.873491 10.9612 1.02298C10.9947 1.17248 11.0067 1.33045 10.9964 1.48702C10.9861 1.64358 10.9537 1.79535 10.9013 1.93283C10.8488 2.07031 10.7774 2.19053 10.6916 2.28596L5.98551 7.80311C5.84034 7.94648 5.66636 8.01486 5.49137 7.9973V7.9973Z" fill="#293961"/>
</svg>
