<svg width="78" height="80" viewBox="0 0 78 80" fill="none" xmlns="http://www.w3.org/2000/svg">
    <path d="M63.25 60.51C70.982 60.51 77.25 54.242 77.25 46.51C77.25 38.778 70.982 32.51 63.25 32.51C55.518 32.51 49.25 38.778 49.25 46.51C49.25 54.242 55.518 60.51 63.25 60.51Z" fill="#CFE9FC"/>
    <path d="M38.13 24C44.7574 24 50.13 18.6274 50.13 12C50.13 5.37258 44.7574 0 38.13 0C31.5026 0 26.13 5.37258 26.13 12C26.13 18.6274 31.5026 24 38.13 24Z" fill="#CFE9FC"/>
    <path d="M20 79.26C31.0457 79.26 40 70.3057 40 59.26C40 48.2143 31.0457 39.26 20 39.26C8.9543 39.26 0 48.2143 0 59.26C0 70.3057 8.9543 79.26 20 79.26Z" fill="#CFE9FC"/>
    <path d="M59.25 7.5H23.25C21.0409 7.5 19.25 9.29086 19.25 11.5V67.5C19.25 69.7091 21.0409 71.5 23.25 71.5H59.25C61.4591 71.5 63.25 69.7091 63.25 67.5V11.5C63.25 9.29086 61.4591 7.5 59.25 7.5Z" fill="white"/>
    <path d="M27.25 12H63.25V67.5C63.25 68.5609 62.8286 69.5783 62.0784 70.3284C61.3283 71.0786 60.3109 71.5 59.25 71.5H25.25V14C25.25 13.4696 25.4607 12.9609 25.8358 12.5858C26.2109 12.2107 26.7196 12 27.25 12Z" fill="#DAE0EF"/>
    <path d="M59.25 72.25H23.25C21.9902 72.25 20.782 71.7496 19.8912 70.8588C19.0004 69.968 18.5 68.7598 18.5 67.5V11.5C18.5 10.2402 19.0004 9.03204 19.8912 8.14124C20.782 7.25045 21.9902 6.75 23.25 6.75H59.25C60.5098 6.75 61.718 7.25045 62.6088 8.14124C63.4996 9.03204 64 10.2402 64 11.5V67.5C64 68.7598 63.4996 69.968 62.6088 70.8588C61.718 71.7496 60.5098 72.25 59.25 72.25ZM23.25 8.25C22.3889 8.25264 21.5637 8.59589 20.9548 9.20482C20.3459 9.81374 20.0026 10.6389 20 11.5V67.5C20.0026 68.3611 20.3459 69.1863 20.9548 69.7952C21.5637 70.4041 22.3889 70.7474 23.25 70.75H59.25C60.1111 70.7474 60.9363 70.4041 61.5452 69.7952C62.1541 69.1863 62.4974 68.3611 62.5 67.5V11.5C62.4974 10.6389 62.1541 9.81374 61.5452 9.20482C60.9363 8.59589 60.1111 8.25264 59.25 8.25H23.25Z" fill="#293961"/>
    <path d="M61.25 16.5H21.25C20.1454 16.5 19.25 17.3954 19.25 18.5V60.5C19.25 61.6046 20.1454 62.5 21.25 62.5H61.25C62.3546 62.5 63.25 61.6046 63.25 60.5V18.5C63.25 17.3954 62.3546 16.5 61.25 16.5Z" fill="white"/>
    <path d="M39.25 38.5H63.25V60.5C63.25 61.0304 63.0393 61.5391 62.6642 61.9142C62.2891 62.2893 61.7804 62.5 61.25 62.5H33.25V44.5C33.25 42.9087 33.8821 41.3826 35.0074 40.2574C36.1326 39.1321 37.6587 38.5 39.25 38.5Z" fill="#DAE0EF"/>
    <path d="M61.25 63.25H21.25C20.5207 63.25 19.8212 62.9603 19.3055 62.4445C18.7897 61.9288 18.5 61.2293 18.5 60.5V18.5C18.5 17.7707 18.7897 17.0712 19.3055 16.5555C19.8212 16.0397 20.5207 15.75 21.25 15.75H61.25C61.9793 15.75 62.6788 16.0397 63.1945 16.5555C63.7103 17.0712 64 17.7707 64 18.5V60.5C64 61.2293 63.7103 61.9288 63.1945 62.4445C62.6788 62.9603 61.9793 63.25 61.25 63.25ZM21.25 17.25C20.9185 17.25 20.6005 17.3817 20.3661 17.6161C20.1317 17.8505 20 18.1685 20 18.5V60.5C20 60.8315 20.1317 61.1495 20.3661 61.3839C20.6005 61.6183 20.9185 61.75 21.25 61.75H61.25C61.5815 61.75 61.8995 61.6183 62.1339 61.3839C62.3683 61.1495 62.5 60.8315 62.5 60.5V18.5C62.5 18.1685 62.3683 17.8505 62.1339 17.6161C61.8995 17.3817 61.5815 17.25 61.25 17.25H21.25Z" fill="#293961"/>
    <path d="M35.25 22.5H13.25C9.93629 22.5 7.25 25.1863 7.25 28.5V50.5C7.25 53.8137 9.93629 56.5 13.25 56.5H35.25C38.5637 56.5 41.25 53.8137 41.25 50.5V28.5C41.25 25.1863 38.5637 22.5 35.25 22.5Z" fill="white"/>
    <path d="M26.5 29.63H41.25V50.25C41.25 51.9076 40.5915 53.4973 39.4194 54.6694C38.2473 55.8415 36.6576 56.5 35 56.5H14V42.12C14.0027 38.8065 15.3208 35.6297 17.6647 33.2876C20.0086 30.9456 23.1865 29.63 26.5 29.63Z" fill="#DAE0EF"/>
    <path d="M51.75 35.5H48.75C47.3693 35.5 46.25 36.6193 46.25 38V41C46.25 42.3807 47.3693 43.5 48.75 43.5H51.75C53.1307 43.5 54.25 42.3807 54.25 41V38C54.25 36.6193 53.1307 35.5 51.75 35.5Z" fill="white"/>
    <path d="M51.75 48.5H48.75C47.3693 48.5 46.25 49.6193 46.25 51V54C46.25 55.3807 47.3693 56.5 48.75 56.5H51.75C53.1307 56.5 54.25 55.3807 54.25 54V51C54.25 49.6193 53.1307 48.5 51.75 48.5Z" fill="white"/>
    <path d="M51.75 22.5H48.75C47.3693 22.5 46.25 23.6193 46.25 25V28C46.25 29.3807 47.3693 30.5 48.75 30.5H51.75C53.1307 30.5 54.25 29.3807 54.25 28V25C54.25 23.6193 53.1307 22.5 51.75 22.5Z" fill="white"/>
    <path d="M51.25 38.5H54.25V41C54.25 41.663 53.9866 42.2989 53.5178 42.7678C53.0489 43.2366 52.413 43.5 51.75 43.5H49.25V40.5C49.25 39.9696 49.4607 39.4609 49.8358 39.0858C50.2109 38.7107 50.7196 38.5 51.25 38.5Z" fill="#DAE0EF"/>
    <path d="M51.25 51.5H54.25V54C54.25 54.663 53.9866 55.2989 53.5178 55.7678C53.0489 56.2366 52.413 56.5 51.75 56.5H49.25V53.5C49.25 52.9696 49.4607 52.4609 49.8358 52.0858C50.2109 51.7107 50.7196 51.5 51.25 51.5Z" fill="#DAE0EF"/>
    <path d="M51.25 25.5H54.25V28C54.25 28.663 53.9866 29.2989 53.5178 29.7678C53.0489 30.2366 52.413 30.5 51.75 30.5H49.25V27.5C49.25 26.9696 49.4607 26.4609 49.8358 26.0858C50.2109 25.7107 50.7196 25.5 51.25 25.5Z" fill="#DAE0EF"/>
    <path d="M51.75 44.25H48.75C47.8889 44.2474 47.0637 43.9041 46.4548 43.2952C45.8459 42.6863 45.5026 41.8611 45.5 41V38C45.5026 37.1389 45.8459 36.3137 46.4548 35.7048C47.0637 35.0959 47.8889 34.7526 48.75 34.75H51.75C52.6111 34.7526 53.4363 35.0959 54.0452 35.7048C54.6541 36.3137 54.9974 37.1389 55 38V41C54.9974 41.8611 54.6541 42.6863 54.0452 43.2952C53.4363 43.9041 52.6111 44.2474 51.75 44.25ZM48.75 36.25C48.2859 36.25 47.8408 36.4344 47.5126 36.7626C47.1844 37.0908 47 37.5359 47 38V41C47 41.4641 47.1844 41.9092 47.5126 42.2374C47.8408 42.5656 48.2859 42.75 48.75 42.75H51.75C52.2133 42.7474 52.6569 42.5622 52.9845 42.2345C53.3122 41.9069 53.4974 41.4633 53.5 41V38C53.4974 37.5367 53.3122 37.0931 52.9845 36.7655C52.6569 36.4378 52.2133 36.2526 51.75 36.25H48.75Z" fill="#293961"/>
    <path d="M51.75 57.25H48.75C47.8889 57.2474 47.0637 56.9041 46.4548 56.2952C45.8459 55.6863 45.5026 54.8611 45.5 54V51C45.5026 50.1389 45.8459 49.3137 46.4548 48.7048C47.0637 48.0959 47.8889 47.7526 48.75 47.75H51.75C52.6111 47.7526 53.4363 48.0959 54.0452 48.7048C54.6541 49.3137 54.9974 50.1389 55 51V54C54.9974 54.8611 54.6541 55.6863 54.0452 56.2952C53.4363 56.9041 52.6111 57.2474 51.75 57.25ZM48.75 49.25C48.2859 49.25 47.8408 49.4344 47.5126 49.7626C47.1844 50.0908 47 50.5359 47 51V54C47 54.4641 47.1844 54.9092 47.5126 55.2374C47.8408 55.5656 48.2859 55.75 48.75 55.75H51.75C52.2141 55.75 52.6592 55.5656 52.9874 55.2374C53.3156 54.9092 53.5 54.4641 53.5 54V51C53.4974 50.5367 53.3122 50.0931 52.9845 49.7655C52.6569 49.4378 52.2133 49.2526 51.75 49.25H48.75Z" fill="#293961"/>
    <path d="M51.75 31.25H48.75C47.8889 31.2474 47.0637 30.9041 46.4548 30.2952C45.8459 29.6863 45.5026 28.8611 45.5 28V25C45.5026 24.1389 45.8459 23.3137 46.4548 22.7048C47.0637 22.0959 47.8889 21.7526 48.75 21.75H51.75C52.6111 21.7526 53.4363 22.0959 54.0452 22.7048C54.6541 23.3137 54.9974 24.1389 55 25V28C54.9974 28.8611 54.6541 29.6863 54.0452 30.2952C53.4363 30.9041 52.6111 31.2474 51.75 31.25ZM48.75 23.25C48.2859 23.25 47.8408 23.4344 47.5126 23.7626C47.1844 24.0908 47 24.5359 47 25V28C47 28.4641 47.1844 28.9092 47.5126 29.2374C47.8408 29.5656 48.2859 29.75 48.75 29.75H51.75C52.2133 29.7474 52.6569 29.5622 52.9845 29.2345C53.3122 28.9069 53.4974 28.4633 53.5 28V25C53.4974 24.5367 53.3122 24.0931 52.9845 23.7655C52.6569 23.4378 52.2133 23.2526 51.75 23.25H48.75Z" fill="#293961"/>
    <path d="M46.82 12.75H36.82C36.6211 12.75 36.4303 12.671 36.2897 12.5303C36.149 12.3897 36.07 12.1989 36.07 12C36.07 11.8011 36.149 11.6103 36.2897 11.4697C36.4303 11.329 36.6211 11.25 36.82 11.25H46.82C47.0189 11.25 47.2097 11.329 47.3503 11.4697C47.491 11.6103 47.57 11.8011 47.57 12C47.57 12.1989 47.491 12.3897 47.3503 12.5303C47.2097 12.671 47.0189 12.75 46.82 12.75Z" fill="#293961"/>
    <path d="M43.82 67.75H39.82C39.6211 67.75 39.4303 67.671 39.2897 67.5303C39.149 67.3897 39.07 67.1989 39.07 67C39.07 66.8011 39.149 66.6103 39.2897 66.4697C39.4303 66.329 39.6211 66.25 39.82 66.25H43.82C44.0189 66.25 44.2097 66.329 44.3503 66.4697C44.491 66.6103 44.57 66.8011 44.57 67C44.57 67.1989 44.491 67.3897 44.3503 67.5303C44.2097 67.671 44.0189 67.75 43.82 67.75Z" fill="#293961"/>
    <path d="M53.82 67.75H49.82C49.6211 67.75 49.4303 67.671 49.2897 67.5303C49.149 67.3897 49.07 67.1989 49.07 67C49.07 66.8011 49.149 66.6103 49.2897 66.4697C49.4303 66.329 49.6211 66.25 49.82 66.25H53.82C54.0189 66.25 54.2097 66.329 54.3503 66.4697C54.491 66.6103 54.57 66.8011 54.57 67C54.57 67.1989 54.491 67.3897 54.3503 67.5303C54.2097 67.671 54.0189 67.75 53.82 67.75Z" fill="#293961"/>
    <path d="M33.82 67.75H29.82C29.6211 67.75 29.4303 67.671 29.2897 67.5303C29.149 67.3897 29.07 67.1989 29.07 67C29.07 66.8011 29.149 66.6103 29.2897 66.4697C29.4303 66.329 29.6211 66.25 29.82 66.25H33.82C34.0189 66.25 34.2097 66.329 34.3503 66.4697C34.491 66.6103 34.57 66.8011 34.57 67C34.57 67.1989 34.491 67.3897 34.3503 67.5303C34.2097 67.671 34.0189 67.75 33.82 67.75Z" fill="#293961"/>
    <path d="M50.82 13C51.3723 13 51.82 12.5523 51.82 12C51.82 11.4477 51.3723 11 50.82 11C50.2677 11 49.82 11.4477 49.82 12C49.82 12.5523 50.2677 13 50.82 13Z" fill="#293961"/>
    <path d="M71.25 53.13H67.25C67.0511 53.13 66.8603 53.051 66.7197 52.9103C66.579 52.7697 66.5 52.5789 66.5 52.38C66.5 52.1811 66.579 51.9903 66.7197 51.8497C66.8603 51.709 67.0511 51.63 67.25 51.63H71.25C71.4489 51.63 71.6397 51.709 71.7803 51.8497C71.921 51.9903 72 52.1811 72 52.38C72 52.5789 71.921 52.7697 71.7803 52.9103C71.6397 53.051 71.4489 53.13 71.25 53.13Z" fill="#293961"/>
    <path d="M69.25 55.13C69.0519 55.1274 68.8626 55.0476 68.7225 54.9075C68.5824 54.7674 68.5026 54.5781 68.5 54.38V50.38C68.5 50.1811 68.579 49.9903 68.7197 49.8497C68.8603 49.709 69.0511 49.63 69.25 49.63C69.4489 49.63 69.6397 49.709 69.7803 49.8497C69.921 49.9903 70 50.1811 70 50.38V54.38C69.9974 54.5781 69.9176 54.7674 69.7775 54.9075C69.6374 55.0476 69.4481 55.1274 69.25 55.13Z" fill="#293961"/>
    <path d="M69.25 47.13C69.6642 47.13 70 46.7942 70 46.38C70 45.9658 69.6642 45.63 69.25 45.63C68.8358 45.63 68.5 45.9658 68.5 46.38C68.5 46.7942 68.8358 47.13 69.25 47.13Z" fill="#293961"/>
    <path d="M69.25 43.13C69.6642 43.13 70 42.7942 70 42.38C70 41.9658 69.6642 41.63 69.25 41.63C68.8358 41.63 68.5 41.9658 68.5 42.38C68.5 42.7942 68.8358 43.13 69.25 43.13Z" fill="#293961"/>
    <path d="M69.25 38.13C69.6642 38.13 70 37.7942 70 37.38C70 36.9658 69.6642 36.63 69.25 36.63C68.8358 36.63 68.5 36.9658 68.5 37.38C68.5 37.7942 68.8358 38.13 69.25 38.13Z" fill="#293961"/>
    <path d="M69.25 31.13C69.6642 31.13 70 30.7942 70 30.38C70 29.9658 69.6642 29.63 69.25 29.63C68.8358 29.63 68.5 29.9658 68.5 30.38C68.5 30.7942 68.8358 31.13 69.25 31.13Z" fill="#293961"/>
    <path d="M59.25 52.4799C59.0511 52.4799 58.8603 52.4009 58.7197 52.2603C58.579 52.1196 58.5 51.9289 58.5 51.7299V40.9399C58.5 40.741 58.579 40.5503 58.7197 40.4096C58.8603 40.269 59.0511 40.1899 59.25 40.1899C59.4489 40.1899 59.6397 40.269 59.7803 40.4096C59.921 40.5503 60 40.741 60 40.9399V51.7299C59.9974 51.928 59.9176 52.1173 59.7775 52.2574C59.6374 52.3975 59.4481 52.4774 59.25 52.4799Z" fill="#293961"/>
    <path d="M59.25 37.69C59.1511 37.6913 59.053 37.6728 58.9614 37.6356C58.8698 37.5984 58.7866 37.5432 58.7167 37.4733C58.6468 37.4034 58.5916 37.3202 58.5544 37.2286C58.5171 37.137 58.4987 37.0388 58.5 36.94V34.73C58.5 34.5311 58.579 34.3403 58.7197 34.1996C58.8603 34.059 59.0511 33.98 59.25 33.98C59.4489 33.98 59.6397 34.059 59.7803 34.1996C59.921 34.3403 60 34.5311 60 34.73V36.94C60 37.1389 59.921 37.3297 59.7803 37.4703C59.6397 37.611 59.4489 37.69 59.25 37.69Z" fill="#293961"/>
    <path d="M15.25 16.25H11.25C11.0511 16.25 10.8603 16.171 10.7197 16.0303C10.579 15.8897 10.5 15.6989 10.5 15.5C10.5 15.3011 10.579 15.1103 10.7197 14.9697C10.8603 14.829 11.0511 14.75 11.25 14.75H15.25C15.4489 14.75 15.6397 14.829 15.7803 14.9697C15.921 15.1103 16 15.3011 16 15.5C16 15.6989 15.921 15.8897 15.7803 16.0303C15.6397 16.171 15.4489 16.25 15.25 16.25Z" fill="#293961"/>
    <path d="M13.25 18.25C13.0511 18.25 12.8603 18.171 12.7197 18.0303C12.579 17.8897 12.5 17.6989 12.5 17.5V13.5C12.5 13.3011 12.579 13.1103 12.7197 12.9697C12.8603 12.829 13.0511 12.75 13.25 12.75C13.4489 12.75 13.6397 12.829 13.7803 12.9697C13.921 13.1103 14 13.3011 14 13.5V17.5C13.9974 17.6981 13.9176 17.8874 13.7775 18.0275C13.6374 18.1676 13.4481 18.2474 13.25 18.25Z" fill="#293961"/>
    <path d="M11.25 62.25H7.25C7.05109 62.25 6.86032 62.171 6.71967 62.0303C6.57902 61.8897 6.5 61.6989 6.5 61.5C6.5 61.3011 6.57902 61.1103 6.71967 60.9697C6.86032 60.829 7.05109 60.75 7.25 60.75H11.25C11.4489 60.75 11.6397 60.829 11.7803 60.9697C11.921 61.1103 12 61.3011 12 61.5C12 61.6989 11.921 61.8897 11.7803 62.0303C11.6397 62.171 11.4489 62.25 11.25 62.25Z" fill="#293961"/>
    <path d="M9.25 64.25C9.15114 64.2513 9.05301 64.2329 8.9614 64.1956C8.8698 64.1584 8.78659 64.1032 8.71667 64.0333C8.64676 63.9634 8.59156 63.8802 8.55435 63.7886C8.51714 63.697 8.49865 63.5989 8.5 63.5V59.5C8.5 59.3011 8.57902 59.1103 8.71967 58.9697C8.86032 58.829 9.05109 58.75 9.25 58.75C9.44891 58.75 9.63968 58.829 9.78033 58.9697C9.92098 59.1103 10 59.3011 10 59.5V63.5C10 63.6989 9.92098 63.8897 9.78033 64.0303C9.63968 64.171 9.44891 64.25 9.25 64.25Z" fill="#293961"/>
    <path d="M15.25 70.26H11.25C11.0511 70.26 10.8603 70.181 10.7197 70.0403C10.579 69.8997 10.5 69.7089 10.5 69.51C10.5 69.3111 10.579 69.1203 10.7197 68.9797C10.8603 68.839 11.0511 68.76 11.25 68.76H15.25C15.4489 68.76 15.6397 68.839 15.7803 68.9797C15.921 69.1203 16 69.3111 16 69.51C16 69.7089 15.921 69.8997 15.7803 70.0403C15.6397 70.181 15.4489 70.26 15.25 70.26Z" fill="#293961"/>
    <path d="M13.25 72.26C13.0511 72.26 12.8603 72.181 12.7197 72.0403C12.579 71.8997 12.5 71.7089 12.5 71.51V67.51C12.5 67.3111 12.579 67.1203 12.7197 66.9797C12.8603 66.839 13.0511 66.76 13.25 66.76C13.4489 66.76 13.6397 66.839 13.7803 66.9797C13.921 67.1203 14 67.3111 14 67.51V71.51C13.9974 71.7081 13.9176 71.8974 13.7775 72.0375C13.6374 72.1776 13.4481 72.2574 13.25 72.26Z" fill="#293961"/>
    <path d="M25.6 47.6H40.5V53.32C40.5 54.1634 40.165 54.9722 39.5686 55.5686C38.9722 56.1649 38.1634 56.5 37.32 56.5H19.25V54C19.2434 53.1619 19.4028 52.3308 19.7189 51.5546C20.0351 50.7784 20.5018 50.0725 21.0921 49.4775C21.6824 48.8825 22.3847 48.4103 23.1584 48.0881C23.932 47.7658 24.7619 47.5999 25.6 47.6Z" fill="white"/>
    <path d="M32.35 31.4V36.8H27M32.4 36.8L30 34.67C29.0726 33.7419 27.9334 33.0532 26.6806 32.6634C25.4277 32.2736 24.0989 32.1944 22.8086 32.4326C21.5184 32.6708 20.3054 33.2192 19.2743 34.0306C18.2432 34.842 17.4249 35.8919 16.89 37.09M16.15 47.6V42.2M16.15 42.2H21.55M16.15 42.2L18.52 44.33C19.4484 45.2581 20.5884 45.9466 21.8419 46.3363C23.0954 46.726 24.4249 46.8052 25.7158 46.5671C27.0067 46.329 28.2204 45.7807 29.2524 44.9694C30.2844 44.1581 31.1038 43.1082 31.64 41.91" stroke="#293961" stroke-width="1.5" stroke-linecap="round" stroke-linejoin="round"/>
    <path d="M35.25 57.25H13.25C11.4606 57.2474 9.74525 56.5353 8.47995 55.2701C7.21465 54.0048 6.50265 52.2894 6.5 50.5V28.5C6.50265 26.7106 7.21465 24.9952 8.47995 23.7299C9.74525 22.4647 11.4606 21.7526 13.25 21.75H35.25C37.0394 21.7526 38.7548 22.4647 40.0201 23.7299C41.2853 24.9952 41.9974 26.7106 42 28.5V50.5C41.9974 52.2894 41.2853 54.0048 40.0201 55.2701C38.7548 56.5353 37.0394 57.2474 35.25 57.25ZM13.25 23.25C11.8584 23.2526 10.5246 23.8066 9.54061 24.7906C8.55661 25.7746 8.00264 27.1084 8 28.5V50.5C8.00264 51.8916 8.55661 53.2254 9.54061 54.2094C10.5246 55.1934 11.8584 55.7474 13.25 55.75H35.25C36.6416 55.7474 37.9754 55.1934 38.9594 54.2094C39.9434 53.2254 40.4974 51.8916 40.5 50.5V28.5C40.4974 27.1084 39.9434 25.7746 38.9594 24.7906C37.9754 23.8066 36.6416 23.2526 35.25 23.25H13.25Z" fill="#293961"/>
</svg>
