<svg width="73" height="82" viewBox="0 0 73 82" fill="none" xmlns="http://www.w3.org/2000/svg">
    <path d="M25.46 81.14C33.1919 81.14 39.46 74.872 39.46 67.14C39.46 59.408 33.1919 53.14 25.46 53.14C17.728 53.14 11.46 59.408 11.46 67.14C11.46 74.872 17.728 81.14 25.46 81.14Z" fill="#CFE9FC"/>
    <path d="M35.98 24C42.6074 24 47.98 18.6274 47.98 12C47.98 5.37258 42.6074 0 35.98 0C29.3526 0 23.98 5.37258 23.98 12C23.98 18.6274 29.3526 24 35.98 24Z" fill="#CFE9FC"/>
    <path d="M52.09 59.3C63.1357 59.3 72.09 50.3457 72.09 39.3C72.09 28.2544 63.1357 19.3 52.09 19.3C41.0443 19.3 32.09 28.2544 32.09 39.3C32.09 50.3457 41.0443 59.3 52.09 59.3Z" fill="#CFE9FC"/>
    <path d="M56.7425 10.744L57.5196 71.7391L9.52355 72.3506C7.40199 72.3776 5.35658 71.5608 3.8373 70.0797C2.31801 68.5987 1.44931 66.5747 1.42228 64.4532L0.747026 11.4575C0.736889 10.6619 1.04321 9.89488 1.59861 9.32515C2.154 8.75542 2.91298 8.42965 3.70856 8.41951L53.7045 7.78248C54.5001 7.77235 55.2671 8.07867 55.8368 8.63407C56.4066 9.18946 56.7323 9.94843 56.7425 10.744V10.744Z" fill="white"/>
    <path d="M47.52 71.86L47.38 60.86C47.2245 48.6615 42.2297 37.0243 33.4943 28.5083C24.759 19.9924 12.9985 15.2952 0.799988 15.45V15.45L1.41999 64.45C1.43304 65.5006 1.65291 66.5383 2.06705 67.5039C2.4812 68.4696 3.08149 69.3441 3.83366 70.0777C4.58583 70.8113 5.47515 71.3896 6.45081 71.7795C7.42648 72.1693 8.46939 72.3632 9.51999 72.35L47.52 71.86Z" fill="#DAE0EF"/>
    <path d="M0.669974 64.45L-2.59946e-05 11.46C-0.0107247 10.4662 0.372485 9.50854 1.06582 8.79646C1.75916 8.08438 2.70623 7.67577 3.69997 7.65997L53.7 6.99997C54.1924 6.99336 54.6814 7.08383 55.1389 7.2662C55.5964 7.44857 56.0135 7.71928 56.3664 8.06287C56.7192 8.40645 57.001 8.81618 57.1955 9.26866C57.39 9.72114 57.4935 10.2075 57.5 10.7L58.27 71.7C58.2713 71.7985 58.2532 71.8963 58.2167 71.9878C58.1803 72.0793 58.1261 72.1627 58.0574 72.2332C57.9887 72.3038 57.9067 72.3602 57.8162 72.3991C57.7257 72.438 57.6285 72.4587 57.53 72.46L9.52997 73.07C7.21347 73.0967 4.98069 72.2047 3.32023 70.5893C1.65977 68.9738 0.706844 66.7663 0.669974 64.45V64.45ZM56 10.75C55.9961 10.4545 55.934 10.1627 55.8173 9.89119C55.7006 9.6197 55.5315 9.37386 55.3198 9.16771C55.1081 8.96156 54.8578 8.79913 54.5833 8.68971C54.3088 8.58028 54.0155 8.52601 53.72 8.52997L3.71997 9.15997C3.42449 9.16388 3.13268 9.22597 2.86119 9.34267C2.5897 9.45937 2.34386 9.62841 2.13771 9.84014C1.93156 10.0519 1.76913 10.3021 1.65971 10.5766C1.55029 10.8511 1.49601 11.1445 1.49997 11.44L2.16997 64.44C2.19633 66.362 2.98384 68.1951 4.35981 69.5373C5.73578 70.8796 7.58789 71.6213 9.50997 71.6L56.76 71L56 10.75Z" fill="#293961"/>
    <path d="M9.51996 72.34C10.5706 72.3269 11.6083 72.1071 12.5739 71.6929C13.5395 71.2788 14.4141 70.6785 15.1477 69.9263C15.8813 69.1742 16.4596 68.2848 16.8494 67.3092C17.2393 66.3335 17.4332 65.2906 17.42 64.24L65.42 63.63C65.4332 64.6806 65.2393 65.7235 64.8494 66.6992C64.4596 67.6748 63.8813 68.5642 63.1477 69.3163C62.4141 70.0685 61.5395 70.6688 60.5739 71.0829C59.6083 71.4971 58.5706 71.717 57.52 71.73L9.51996 72.34Z" fill="white"/>
    <path d="M57.77 71.72C58.8791 70.2912 59.4713 68.5286 59.45 66.72L16.87 67.26C16.3058 68.7035 15.3344 69.952 14.074 70.8538C12.8136 71.7557 11.3183 72.272 9.76996 72.34V72.34L57.53 71.73L57.77 71.72Z" fill="#DAE0EF"/>
    <path d="M8.76996 72.35C8.76989 72.1519 8.84721 71.9615 8.98544 71.8196C9.12367 71.6776 9.31188 71.5952 9.50996 71.59C11.432 71.5636 13.2651 70.7761 14.6073 69.4002C15.9496 68.0242 16.6913 66.1721 16.67 64.25C16.6699 64.0519 16.7472 63.8615 16.8854 63.7196C17.0237 63.5776 17.2119 63.4952 17.41 63.49L65.41 62.88C65.6081 62.8799 65.7984 62.9573 65.9404 63.0955C66.0824 63.2337 66.1647 63.4219 66.17 63.62C66.1967 65.9399 65.302 68.1757 63.6822 69.8367C62.0624 71.4978 59.8498 72.4484 57.53 72.48L9.52996 73.09C9.33181 73.0901 9.14147 73.0128 8.99951 72.8745C8.85754 72.7363 8.77517 72.5481 8.76996 72.35ZM18.15 65C18.0531 66.3012 17.6671 67.5645 17.0201 68.6976C16.3731 69.8307 15.4814 70.8052 14.41 71.55L57.51 71C59.3023 70.9755 61.0222 70.2889 62.3386 69.0722C63.655 67.8555 64.4747 66.1949 64.64 64.41L18.15 65Z" fill="#21365F"/>
    <path d="M60.46 47.69C60.4599 47.4919 60.5372 47.3015 60.6754 47.1595C60.8137 47.0176 61.0019 46.9352 61.2 46.93H65.2C65.2985 46.9287 65.3962 46.9468 65.4877 46.9832C65.5792 47.0197 65.6627 47.0739 65.7332 47.1426C65.8038 47.2113 65.8602 47.2932 65.8991 47.3837C65.938 47.4742 65.9587 47.5715 65.96 47.67C65.9626 47.7688 65.9455 47.8672 65.9095 47.9593C65.8735 48.0514 65.8194 48.1354 65.7504 48.2062C65.6814 48.2771 65.599 48.3334 65.5078 48.3718C65.4167 48.4103 65.3188 48.43 65.22 48.43H61.22C61.1215 48.4313 61.0237 48.4132 60.9322 48.3768C60.8407 48.3403 60.7573 48.2861 60.6867 48.2174C60.6161 48.1487 60.5598 48.0668 60.5209 47.9763C60.482 47.8858 60.4613 47.7885 60.46 47.69V47.69Z" fill="#293961"/>
    <path d="M62.49 49.67L62.44 45.67C62.4373 45.5711 62.4545 45.4728 62.4905 45.3806C62.5264 45.2885 62.5805 45.2046 62.6495 45.1337C62.7185 45.0629 62.801 45.0066 62.8921 44.9682C62.9832 44.9297 63.0811 44.9099 63.18 44.91C63.2785 44.9087 63.3763 44.9268 63.4678 44.9632C63.5593 44.9997 63.6427 45.0538 63.7132 45.1226C63.7838 45.1913 63.8402 45.2732 63.8791 45.3637C63.918 45.4542 63.9387 45.5515 63.94 45.65L63.99 49.65C63.99 49.8481 63.9127 50.0385 63.7745 50.1804C63.6363 50.3224 63.448 50.4048 63.25 50.41C63.1515 50.4113 63.0537 50.3932 62.9622 50.3567C62.8707 50.3203 62.7873 50.2661 62.7167 50.1974C62.6461 50.1287 62.5898 50.0467 62.5509 49.9562C62.512 49.8657 62.4913 49.7685 62.49 49.67V49.67Z" fill="#293961"/>
    <path d="M63.14 42.41C63.5542 42.41 63.89 42.0742 63.89 41.66C63.89 41.2458 63.5542 40.91 63.14 40.91C62.7258 40.91 62.39 41.2458 62.39 41.66C62.39 42.0742 62.7258 42.41 63.14 42.41Z" fill="#293961"/>
    <path d="M63.1 39.41C63.5142 39.41 63.85 39.0742 63.85 38.66C63.85 38.2458 63.5142 37.91 63.1 37.91C62.6858 37.91 62.35 38.2458 62.35 38.66C62.35 39.0742 62.6858 39.41 63.1 39.41Z" fill="#293961"/>
    <path d="M63.05 35.41C63.4642 35.41 63.8 35.0742 63.8 34.66C63.8 34.2458 63.4642 33.91 63.05 33.91C62.6358 33.91 62.3 34.2458 62.3 34.66C62.3 35.0742 62.6358 35.41 63.05 35.41Z" fill="#293961"/>
    <path d="M62.97 29.41C63.3842 29.41 63.72 29.0742 63.72 28.66C63.72 28.2458 63.3842 27.91 62.97 27.91C62.5558 27.91 62.22 28.2458 62.22 28.66C62.22 29.0742 62.5558 29.41 62.97 29.41Z" fill="#293961"/>
    <path d="M4.13997 22.19L3.99997 13.41C3.99729 13.3111 4.01446 13.2127 4.05045 13.1206C4.08644 13.0285 4.14052 12.9446 4.20951 12.8737C4.27849 12.8029 4.36097 12.7466 4.45208 12.7081C4.54319 12.6697 4.64108 12.6499 4.73996 12.65C4.83846 12.6486 4.93625 12.6667 5.02775 12.7032C5.11925 12.7397 5.20267 12.7938 5.27324 12.8625C5.34382 12.9313 5.40016 13.0132 5.43907 13.1037C5.47797 13.1942 5.49866 13.2915 5.49997 13.39L5.60997 22.17C5.61003 22.3681 5.53271 22.5585 5.39448 22.7004C5.25625 22.8424 5.06804 22.9248 4.86997 22.93C4.67544 22.9273 4.48978 22.8482 4.35316 22.7097C4.21654 22.5712 4.13995 22.3845 4.13997 22.19V22.19Z" fill="#293961"/>
    <path d="M4.21994 28.3999V26.1899C4.21994 25.991 4.29896 25.8003 4.43961 25.6596C4.58027 25.519 4.77103 25.4399 4.96994 25.4399C5.16886 25.4399 5.35962 25.519 5.50027 25.6596C5.64093 25.8003 5.71994 25.991 5.71994 26.1899V28.3999C5.72127 28.4984 5.70317 28.5962 5.6667 28.6877C5.63022 28.7792 5.57608 28.8626 5.50736 28.9332C5.43865 29.0038 5.3567 29.0601 5.26621 29.099C5.17571 29.1379 5.07844 29.1586 4.97994 29.1599C4.87939 29.1627 4.77933 29.1449 4.68587 29.1077C4.59242 29.0705 4.50754 29.0146 4.43641 28.9435C4.36528 28.8723 4.3094 28.7875 4.27218 28.694C4.23496 28.6006 4.21719 28.5005 4.21994 28.3999V28.3999Z" fill="#293961"/>
    <path d="M6.70996 67.38V63.38C6.70996 63.1811 6.78898 62.9903 6.92963 62.8497C7.07028 62.709 7.26105 62.63 7.45996 62.63C7.65887 62.63 7.84964 62.709 7.99029 62.8497C8.13094 62.9903 8.20996 63.1811 8.20996 63.38L8.25996 67.38C8.25996 67.5789 8.18094 67.7697 8.04029 67.9103C7.89964 68.051 7.70887 68.13 7.50996 68.13C7.31105 68.13 7.12028 68.051 6.97963 67.9103C6.83898 67.7697 6.75996 67.5789 6.75996 67.38H6.70996Z" fill="#293961"/>
    <path d="M4.68995 65.4C4.68863 65.3015 4.70672 65.2037 4.7432 65.1122C4.77967 65.0207 4.83381 64.9373 4.90253 64.8667C4.97125 64.7962 5.0532 64.7398 5.14369 64.7009C5.23419 64.662 5.33146 64.6413 5.42995 64.64H9.42995C9.62714 64.64 9.81641 64.7176 9.95678 64.8561C10.0971 64.9946 10.1773 65.1828 10.18 65.38C10.1826 65.4789 10.1655 65.5772 10.1295 65.6693C10.0935 65.7615 10.0394 65.8454 9.97041 65.9163C9.90143 65.9871 9.81895 66.0434 9.72784 66.0818C9.63673 66.1203 9.53884 66.1401 9.43995 66.14H5.43995C5.34157 66.1427 5.24366 66.1255 5.1521 66.0894C5.06054 66.0533 4.97723 65.9991 4.90717 65.9299C4.83711 65.8608 4.78175 65.7782 4.74442 65.6872C4.7071 65.5961 4.68857 65.4984 4.68995 65.4V65.4Z" fill="#293961"/>
    <path d="M10.6 58.33V54.33C10.5973 54.2312 10.6145 54.1328 10.6505 54.0407C10.6865 53.9486 10.7406 53.8646 10.8095 53.7938C10.8785 53.7229 10.961 53.6666 11.0521 53.6282C11.1432 53.5898 11.2411 53.57 11.34 53.57C11.4385 53.5687 11.5363 53.5868 11.6278 53.6233C11.7193 53.6597 11.8027 53.7139 11.8733 53.7826C11.9439 53.8513 12.0002 53.9333 12.0391 54.0238C12.078 54.1142 12.0987 54.2115 12.1 54.31V58.31C12.1001 58.5082 12.0228 58.6985 11.8845 58.8405C11.7463 58.9824 11.5581 59.0648 11.36 59.07C11.2615 59.0713 11.1637 59.0532 11.0722 59.0168C10.9807 58.9803 10.8973 58.9262 10.8267 58.8574C10.7561 58.7887 10.6998 58.7068 10.6609 58.6163C10.622 58.5258 10.6013 58.4285 10.6 58.33V58.33Z" fill="#293961"/>
    <path d="M8.56995 56.35C8.56988 56.1519 8.6472 55.9616 8.78543 55.8196C8.92366 55.6776 9.11187 55.5953 9.30995 55.59L13.3099 55.54C13.5089 55.54 13.6996 55.6191 13.8403 55.7597C13.9809 55.9004 14.0599 56.0911 14.0599 56.29C14.0599 56.489 13.9809 56.6797 13.8403 56.8204C13.6996 56.961 13.5089 57.04 13.3099 57.04L9.30995 57.09C9.11528 57.085 8.92998 57.0054 8.79229 56.8677C8.65459 56.73 8.57501 56.5447 8.56995 56.35V56.35Z" fill="#293961"/>
    <path d="M50.12 19.8201V15.8201C50.1173 15.7212 50.1345 15.6228 50.1704 15.5307C50.2064 15.4386 50.2605 15.3547 50.3295 15.2838C50.3985 15.213 50.481 15.1567 50.5721 15.1182C50.6632 15.0798 50.7611 15.06 50.86 15.0601C51.0581 15.06 51.2484 15.1373 51.3904 15.2755C51.5324 15.4138 51.6147 15.602 51.62 15.8001V19.8001C51.62 19.9982 51.5427 20.1885 51.4045 20.3305C51.2662 20.4725 51.078 20.5548 50.88 20.5601C50.7815 20.5614 50.6837 20.5433 50.5922 20.5068C50.5007 20.4703 50.4173 20.4162 50.3467 20.3475C50.2761 20.2788 50.2198 20.1968 50.1809 20.1063C50.142 20.0158 50.1213 19.9186 50.12 19.8201V19.8201Z" fill="#293961"/>
    <path d="M48.09 17.84C48.0899 17.6418 48.1672 17.4515 48.3054 17.3095C48.4437 17.1675 48.6319 17.0852 48.83 17.08H52.83C53.0281 17.0799 53.2184 17.1572 53.3604 17.2954C53.5024 17.4337 53.5848 17.6219 53.59 17.82C53.5926 17.9188 53.5755 18.0172 53.5395 18.1093C53.5035 18.2014 53.4494 18.2853 53.3804 18.3562C53.3114 18.427 53.229 18.4833 53.1378 18.5218C53.0467 18.5602 52.9488 18.58 52.85 18.58H48.85C48.7515 18.5813 48.6537 18.5632 48.5622 18.5267C48.4707 18.4902 48.3873 18.4361 48.3167 18.3674C48.2461 18.2987 48.1898 18.2167 48.1509 18.1262C48.112 18.0357 48.0913 17.9385 48.09 17.84V17.84Z" fill="#293961"/>
    <path d="M32.08 57.0001V54.0001C33.3921 53.7806 34.6764 53.4184 35.91 52.9201L37.42 55.4601C37.5698 55.7105 37.8123 55.8919 38.0949 55.9649C38.3775 56.0379 38.6775 55.9966 38.93 55.8501L41.76 54.1601C41.885 54.0868 41.9943 53.9895 42.0816 53.8739C42.169 53.7582 42.2326 53.6264 42.2688 53.4861C42.305 53.3458 42.3132 53.1997 42.2928 53.0562C42.2724 52.9128 42.2239 52.7747 42.15 52.6501L40.59 50.1001C41.6198 49.2603 42.5523 48.3076 43.37 47.2601L46 48.7101C46.126 48.7812 46.2648 48.8267 46.4084 48.8441C46.5521 48.8615 46.6978 48.8503 46.8371 48.8113C46.9764 48.7723 47.1067 48.7062 47.2205 48.6167C47.3342 48.5273 47.4292 48.4163 47.5 48.2901L49.11 45.4101C49.1811 45.284 49.2266 45.1452 49.244 45.0016C49.2613 44.8579 49.2502 44.7122 49.2112 44.5729C49.1722 44.4336 49.1061 44.3033 49.0166 44.1896C48.9272 44.0758 48.8162 43.9808 48.69 43.9101L46.11 42.4601C46.5836 41.2173 46.9189 39.9262 47.11 38.6101H50.11C50.2544 38.6075 50.3969 38.5764 50.5294 38.5187C50.6619 38.461 50.7817 38.3778 50.882 38.2738C50.9823 38.1698 51.0611 38.047 51.1139 37.9126C51.1668 37.7781 51.1926 37.6345 51.19 37.4901V34.1901C51.1887 34.0461 51.1588 33.9037 51.1022 33.7713C51.0456 33.6389 50.9633 33.5191 50.8601 33.4186C50.7569 33.3182 50.6348 33.2392 50.5009 33.1863C50.367 33.1333 50.2239 33.1074 50.08 33.1101H47.08C46.8619 31.8008 46.4997 30.5197 46 29.2901L48.55 27.7801C48.6742 27.706 48.7825 27.6081 48.8689 27.4921C48.9552 27.376 49.0178 27.2441 49.0531 27.1039C49.0884 26.9636 49.0957 26.8178 49.0746 26.6747C49.0534 26.5316 49.0043 26.3941 48.93 26.2701L47.24 23.4301C47.1668 23.3062 47.0699 23.198 46.9547 23.1118C46.8396 23.0256 46.7085 22.963 46.5691 22.9277C46.4296 22.8924 46.2846 22.885 46.1423 22.906C46 22.927 45.8632 22.976 45.74 23.0501L43.19 24.5601C42.3422 23.5405 41.3903 22.6121 40.35 21.7901L41.79 19.2101C41.8611 19.084 41.9066 18.9452 41.924 18.8016C41.9413 18.6579 41.9302 18.5122 41.8912 18.3729C41.8522 18.2336 41.7861 18.1033 41.6966 17.9896C41.6072 17.8758 41.4962 17.7808 41.37 17.7101L38.49 16.0901C38.2352 15.9504 37.9355 15.9173 37.6563 15.9978C37.3771 16.0784 37.1412 16.2661 37 16.5201L35.44 19.1001C34.1979 18.6242 32.9066 18.2887 31.59 18.1001V15.1001C31.5886 14.9556 31.5589 14.8128 31.5024 14.6799C31.4459 14.5469 31.3638 14.4264 31.2607 14.3252C31.1576 14.2239 31.0356 14.144 30.9017 14.0899C30.7677 14.0359 30.6244 14.0087 30.48 14.0101H27.18C26.8873 14.0153 26.6086 14.136 26.4044 14.3457C26.2003 14.5555 26.0873 14.8374 26.09 15.1301V18.0801C24.7778 18.2995 23.4935 18.6617 22.26 19.1601L20.75 16.6201C20.6759 16.4959 20.578 16.3875 20.462 16.3012C20.3459 16.2148 20.214 16.1522 20.0738 16.1169C19.9335 16.0816 19.7877 16.0743 19.6446 16.0955C19.5015 16.1166 19.364 16.1657 19.24 16.2401L16.41 18.0001C16.2806 18.0716 16.1669 18.1685 16.0758 18.285C15.9848 18.4015 15.9181 18.5351 15.8798 18.6779C15.8415 18.8207 15.8324 18.9698 15.8531 19.1162C15.8737 19.2626 15.9237 19.4034 16 19.5301L17.52 22.0801C16.4925 22.9225 15.5602 23.8748 14.74 24.9201L12.16 23.4701C11.9049 23.3291 11.6046 23.2942 11.3239 23.3728C11.0433 23.4513 10.8048 23.6371 10.66 23.8901L9.06996 26.7701C8.99885 26.8961 8.9533 27.0349 8.93593 27.1785C8.91856 27.3222 8.9297 27.4679 8.96871 27.6072C9.00773 27.7465 9.07385 27.8768 9.1633 27.9906C9.25274 28.1043 9.36375 28.1993 9.48996 28.2701L12.07 29.7201C11.5963 30.9628 11.261 32.2539 11.07 33.5701H8.06996C7.92596 33.5714 7.78365 33.6012 7.65124 33.6578C7.51884 33.7144 7.39896 33.7967 7.29854 33.8999C7.19812 34.0031 7.11915 34.1252 7.06618 34.2591C7.01321 34.393 6.98731 34.5361 6.98996 34.6801V37.9801C6.98489 38.1368 7.01337 38.2927 7.0735 38.4375C7.13363 38.5823 7.22401 38.7126 7.33859 38.8196C7.45318 38.9266 7.58931 39.0079 7.73786 39.058C7.88642 39.1081 8.04397 39.1258 8.19996 39.1101H11.2C11.418 40.4193 11.7802 41.7004 12.28 42.9301L9.68995 44.4101C9.5661 44.4832 9.45794 44.5801 9.37173 44.6953C9.28551 44.8104 9.22294 44.9415 9.18761 45.0809C9.15229 45.2204 9.14491 45.3654 9.16591 45.5077C9.18691 45.65 9.23586 45.7868 9.30996 45.9101L11 48.7501C11.0731 48.8739 11.17 48.9821 11.2852 49.0683C11.4003 49.1545 11.5314 49.2171 11.6708 49.2524C11.8103 49.2877 11.9553 49.2951 12.0976 49.2741C12.2399 49.2531 12.3767 49.2042 12.5 49.1301L15.05 47.6201C15.8977 48.6396 16.8496 49.568 17.89 50.3901L16.45 53.0001C16.3791 53.1253 16.3337 53.2634 16.3165 53.4063C16.2992 53.5492 16.3105 53.694 16.3495 53.8326C16.3885 53.9711 16.4546 54.1005 16.544 54.2134C16.6333 54.3262 16.7441 54.4203 16.87 54.4901L19.75 56.1101C19.8752 56.1809 20.0133 56.2263 20.1562 56.2435C20.2991 56.2608 20.4439 56.2496 20.5825 56.2105C20.721 56.1715 20.8504 56.1054 20.9633 56.016C21.0761 55.9267 21.1701 55.8159 21.24 55.6901L22.69 53.1001C23.932 53.5758 25.2234 53.9112 26.54 54.1001V57.1001C26.5413 57.2445 26.571 57.3873 26.6275 57.5203C26.684 57.6532 26.7661 57.7737 26.8692 57.875C26.9723 57.9762 27.0943 58.0561 27.2282 58.1102C27.3622 58.1642 27.5055 58.1914 27.65 58.1901H30.95C31.1044 58.1932 31.2578 58.1642 31.4003 58.1047C31.5429 58.0452 31.6714 57.9566 31.7778 57.8446C31.8841 57.7326 31.9659 57.5997 32.018 57.4542C32.07 57.3088 32.0911 57.1541 32.08 57.0001V57.0001Z" fill="white"/>
    <path d="M14.76 24.92L12.18 23.47C11.9249 23.329 11.6246 23.2941 11.3439 23.3727C11.0633 23.4513 10.8248 23.6371 10.68 23.89L9.06996 26.77C8.99885 26.896 8.9533 27.0348 8.93593 27.1785C8.91856 27.3221 8.9297 27.4678 8.96871 27.6071C9.00773 27.7465 9.07385 27.8767 9.1633 27.9905C9.25274 28.1042 9.36375 28.1992 9.48996 28.27L12.07 29.72C11.5963 30.9627 11.261 32.2538 11.07 33.57H8.06996C7.92596 33.5713 7.78365 33.6011 7.65124 33.6577C7.51884 33.7143 7.39896 33.7966 7.29854 33.8998C7.19812 34.003 7.11915 34.1251 7.06618 34.259C7.01321 34.3929 6.98731 34.536 6.98996 34.68V37.98C6.98489 38.1367 7.01337 38.2926 7.0735 38.4374C7.13363 38.5822 7.22401 38.7125 7.33859 38.8195C7.45318 38.9265 7.58931 39.0078 7.73786 39.0579C7.88642 39.108 8.04397 39.1257 8.19996 39.11H11.2C11.418 40.4192 11.7802 41.7004 12.28 42.93L9.68995 44.41C9.5661 44.4831 9.45794 44.5801 9.37173 44.6952C9.28551 44.8103 9.22294 44.9414 9.18761 45.0808C9.15229 45.2203 9.14491 45.3653 9.16591 45.5076C9.18691 45.6499 9.23586 45.7867 9.30996 45.91L11 48.75C11.0731 48.8738 11.17 48.982 11.2852 49.0682C11.4003 49.1544 11.5314 49.217 11.6708 49.2523C11.8103 49.2876 11.9553 49.295 12.0976 49.274C12.2399 49.253 12.3767 49.2041 12.5 49.13L15.05 47.62C15.8977 48.6395 16.8496 49.5679 17.89 50.39L16.45 53C16.3791 53.1252 16.3337 53.2633 16.3165 53.4062C16.2992 53.5491 16.3105 53.694 16.3495 53.8325C16.3885 53.971 16.4546 54.1004 16.544 54.2133C16.6333 54.3261 16.7441 54.4202 16.87 54.49L19.75 56.11C19.8752 56.1809 20.0133 56.2262 20.1562 56.2435C20.2991 56.2607 20.4439 56.2495 20.5825 56.2104C20.721 56.1714 20.8504 56.1053 20.9633 56.016C21.0761 55.9266 21.1701 55.8158 21.24 55.69L22.69 53.1C23.932 53.5757 25.2234 53.9111 26.54 54.1V57.1C26.5413 57.2444 26.571 57.3872 26.6275 57.5202C26.684 57.6531 26.7661 57.7737 26.8692 57.8749C26.9723 57.9761 27.0943 58.056 27.2282 58.1101C27.3622 58.1641 27.5055 58.1913 27.65 58.19H30.95C31.1044 58.1932 31.2578 58.1641 31.4003 58.1046C31.5429 58.0451 31.6714 57.9565 31.7778 57.8445C31.8841 57.7325 31.9659 57.5996 32.018 57.4541C32.07 57.3087 32.0911 57.154 32.08 57V54C33.3921 53.7805 34.6764 53.4183 35.91 52.92L37.42 55.46C37.5698 55.7105 37.8123 55.8918 38.0949 55.9648C38.3775 56.0378 38.6775 55.9966 38.93 55.85L41.76 54.16C41.885 54.0867 41.9943 53.9894 42.0816 53.8738C42.169 53.7581 42.2326 53.6264 42.2688 53.486C42.305 53.3457 42.3132 53.1996 42.2928 53.0561C42.2724 52.9127 42.2239 52.7746 42.15 52.65L40.59 50.1C41.5507 49.3109 42.4256 48.4226 43.2 47.45C43.2 47.27 43.2 47.1 43.2 46.92C43.1595 43.6369 42.4727 40.3939 41.1788 37.3762C39.8849 34.3585 38.0093 31.6253 35.659 29.3325C33.3087 27.0398 30.5298 25.2325 27.4809 24.0138C24.4321 22.7952 21.1731 22.189 17.89 22.23H17.34C16.3918 23.0377 15.5275 23.939 14.76 24.92V24.92Z" fill="#DAE0EF"/>
    <path d="M6.33997 38V34.7C6.336 34.4575 6.38 34.2166 6.46944 33.9912C6.55888 33.7658 6.692 33.5603 6.86114 33.3865C7.03027 33.2128 7.23209 33.0741 7.45499 32.9786C7.6779 32.8831 7.91748 32.8326 8.15997 32.83H10.49C10.6548 31.8907 10.8888 30.9648 11.19 30.06L9.18997 28.92C8.97811 28.8022 8.7916 28.6438 8.64116 28.4537C8.49072 28.2637 8.37931 28.0458 8.31334 27.8125C8.24736 27.5793 8.22812 27.3353 8.25672 27.0946C8.28531 26.8539 8.36118 26.6213 8.47997 26.41L9.99997 23.53C10.1181 23.3176 10.2769 23.1305 10.4674 22.9795C10.6579 22.8285 10.8762 22.7165 11.11 22.65C11.5841 22.5201 12.0903 22.5811 12.52 22.82L14.52 23.96C15.1365 23.245 15.805 22.5765 16.52 21.96L15.33 19.96C15.1998 19.7479 15.1138 19.5117 15.0771 19.2655C15.0403 19.0194 15.0536 18.7683 15.1162 18.5275C15.1788 18.2866 15.2893 18.0608 15.4411 17.8636C15.593 17.6665 15.783 17.502 16 17.38L18.84 15.69C19.2634 15.441 19.7681 15.3696 20.244 15.4913C20.7198 15.6131 21.1282 15.9182 21.38 16.34L22.57 18.34C23.4625 18.0118 24.3784 17.751 25.31 17.56V15.24C25.3072 14.7491 25.4976 14.2769 25.84 13.9252C26.1823 13.5735 26.6492 13.3705 27.14 13.36H30.44C30.6829 13.3573 30.924 13.4026 31.1495 13.4931C31.3749 13.5837 31.5804 13.7177 31.754 13.8877C31.9277 14.0576 32.0661 14.2601 32.1615 14.4835C32.2569 14.707 32.3074 14.947 32.31 15.19V17.51C33.2464 17.6772 34.169 17.9145 35.07 18.22L36.21 16.22C36.4535 15.7952 36.8509 15.4802 37.32 15.34C37.794 15.209 38.3006 15.2701 38.73 15.51L41.61 17.12C41.8222 17.2387 42.0089 17.3981 42.1595 17.589C42.31 17.78 42.4214 17.9987 42.4874 18.2328C42.5533 18.4668 42.5725 18.7116 42.5438 18.953C42.515 19.1945 42.439 19.4279 42.32 19.64L41.18 21.64C41.8974 22.2539 42.566 22.9226 43.18 23.64L45.18 22.44C45.6034 22.191 46.1081 22.1196 46.584 22.2413C47.0598 22.3631 47.4682 22.6682 47.72 23.09L49.4 25.93C49.5261 26.1376 49.6097 26.3682 49.6458 26.6084C49.6819 26.8486 49.6698 27.0936 49.6102 27.3291C49.5506 27.5646 49.4448 27.7859 49.2988 27.98C49.1528 28.1742 48.9696 28.3373 48.76 28.46L46.76 29.65C47.0897 30.5446 47.3472 31.4642 47.53 32.4H49.86C50.1024 32.396 50.3433 32.44 50.5687 32.5294C50.7941 32.6189 50.9996 32.752 51.1734 32.9211C51.3472 33.0903 51.4858 33.2921 51.5813 33.515C51.6769 33.7379 51.7274 33.9775 51.73 34.22L51.78 37.52C51.7654 37.9903 51.5741 38.4378 51.2442 38.7733C50.9142 39.1088 50.47 39.3076 50 39.33H47.67C47.5051 40.266 47.2712 41.1885 46.97 42.09L48.97 43.23C49.3966 43.4716 49.7105 43.872 49.8434 44.3439C49.9764 44.8158 49.9176 45.3211 49.68 45.75L48.1 48.66C47.8585 49.0842 47.4593 49.3958 46.9891 49.5269C46.519 49.658 46.0161 49.598 45.59 49.36L43.59 48.22C42.9751 48.952 42.3066 49.6372 41.59 50.27L42.78 52.27C43.0293 52.6906 43.102 53.1929 42.9821 53.667C42.8622 54.1412 42.5594 54.5485 42.14 54.8L39.3 56.49C39.092 56.6156 38.8608 56.698 38.6203 56.7324C38.3798 56.7667 38.1348 56.7523 37.9 56.69C37.4245 56.5702 37.0152 56.2686 36.76 55.85L35.58 53.85C34.6824 54.1705 33.7635 54.4278 32.83 54.62V56.95C32.8326 57.1929 32.7874 57.434 32.6968 57.6595C32.6063 57.8849 32.4722 58.0904 32.3023 58.264C32.1324 58.4377 31.9299 58.5761 31.7064 58.6715C31.483 58.7669 31.2429 58.8174 31 58.82H27.7C27.211 58.8253 26.7398 58.6369 26.3894 58.2958C26.039 57.9548 25.8379 57.4889 25.83 57V54.68C24.8696 54.5312 23.9231 54.3037 23 54L21.9 56C21.7812 56.2122 21.6219 56.3989 21.4309 56.5495C21.24 56.7 21.0212 56.8115 20.7872 56.8774C20.5531 56.9433 20.3084 56.9625 20.0669 56.9338C19.8254 56.905 19.592 56.829 19.38 56.71L16.5 55.13C16.2878 55.0113 16.101 54.8519 15.9505 54.6609C15.7999 54.47 15.6885 54.2512 15.6225 54.0172C15.5566 53.7831 15.5374 53.5384 15.5662 53.2969C15.5949 53.0554 15.671 52.822 15.79 52.61L16.93 50.61C16.215 49.9935 15.5465 49.325 14.93 48.61L12.93 49.8C12.5078 50.0484 12.0048 50.1202 11.53 50C11.2926 49.9421 11.0694 49.837 10.8735 49.6909C10.6777 49.5449 10.5132 49.3609 10.39 49.15L8.66997 46.3C8.54359 46.0916 8.45986 45.8602 8.42364 45.6192C8.38742 45.3783 8.39942 45.1325 8.45897 44.8962C8.51851 44.6599 8.62439 44.4377 8.77048 44.2427C8.91657 44.0477 9.09995 43.8836 9.30997 43.76L11.31 42.57C10.9816 41.6783 10.7241 40.7622 10.54 39.83H8.20997C7.96702 39.8326 7.72593 39.7874 7.50046 39.6968C7.275 39.6063 7.06958 39.4722 6.89593 39.3023C6.72228 39.1324 6.58381 38.9299 6.48842 38.7064C6.39302 38.483 6.34258 38.2429 6.33997 38V38ZM12.82 29.68C12.8227 29.7725 12.8057 29.8646 12.77 29.95C12.3225 31.1419 12.0073 32.3793 11.83 33.64C11.8061 33.8177 11.7193 33.981 11.5854 34.1002C11.4515 34.2195 11.2793 34.2868 11.1 34.29H8.09997C8.05446 34.29 8.00942 34.2991 7.9675 34.3168C7.92559 34.3345 7.88765 34.3604 7.85595 34.3931C7.82424 34.4257 7.79941 34.4644 7.78292 34.5068C7.76643 34.5492 7.75863 34.5945 7.75997 34.64V37.94C7.75997 37.9859 7.76902 38.0314 7.78661 38.0739C7.8042 38.1164 7.82998 38.155 7.86248 38.1875C7.89498 38.22 7.93356 38.2457 7.97603 38.2633C8.01849 38.2809 8.064 38.29 8.10997 38.29H11.11C11.2903 38.2855 11.466 38.3471 11.6041 38.4631C11.7422 38.5791 11.8332 38.7416 11.86 38.92C12.0563 40.1733 12.3917 41.4009 12.86 42.58C12.9285 42.7464 12.9349 42.9319 12.8779 43.1026C12.821 43.2734 12.7046 43.4179 12.55 43.51L10.01 45.02C9.93043 45.0677 9.87312 45.1451 9.85061 45.2351C9.82811 45.3251 9.84227 45.4204 9.88997 45.5L11.57 48.34C11.6203 48.4193 11.699 48.4765 11.79 48.5C11.8739 48.5305 11.966 48.5305 12.05 48.5L14.67 47C14.829 46.9024 15.018 46.8658 15.2019 46.897C15.3858 46.9283 15.5522 47.0253 15.67 47.17C16.481 48.1528 17.3964 49.0447 18.4 49.83C18.5497 49.9436 18.652 50.1088 18.6871 50.2935C18.7222 50.4782 18.6876 50.6693 18.59 50.83L17.1 53.34C17.0566 53.4225 17.0469 53.5187 17.073 53.6082C17.0992 53.6978 17.159 53.7737 17.24 53.82L20.11 55.43C20.15 55.4532 20.1942 55.4682 20.24 55.4742C20.2859 55.4803 20.3324 55.4771 20.3771 55.465C20.4217 55.453 20.4635 55.4321 20.5 55.4038C20.5366 55.3755 20.5671 55.3402 20.59 55.3L22 52.72C22.087 52.5623 22.2278 52.4412 22.3967 52.3787C22.5656 52.3163 22.7513 52.3168 22.92 52.38C24.1111 52.8298 25.3488 53.1451 26.61 53.32C26.7867 53.3482 26.9478 53.4379 27.0649 53.5733C27.182 53.7087 27.2475 53.881 27.25 54.06V57.01C27.2499 57.0568 27.2593 57.1031 27.2775 57.1463C27.2957 57.1894 27.3224 57.2284 27.356 57.2611C27.3896 57.2937 27.4293 57.3193 27.473 57.3363C27.5166 57.3532 27.5632 57.3613 27.61 57.36H30.9C30.9468 57.36 30.9931 57.3506 31.0363 57.3324C31.0794 57.3142 31.1184 57.2875 31.1511 57.254C31.1837 57.2204 31.2093 57.1806 31.2263 57.137C31.2432 57.0934 31.2513 57.0468 31.25 57V54C31.2477 53.8202 31.31 53.6456 31.4256 53.5079C31.5413 53.3703 31.7025 53.2787 31.88 53.25C33.1352 53.0472 34.3654 52.712 35.55 52.25C35.7152 52.1842 35.8984 52.1793 36.0669 52.236C36.2354 52.2928 36.3783 52.4076 36.47 52.56L38 55.08C38.0496 55.16 38.1285 55.2175 38.22 55.24C38.261 55.2576 38.3053 55.2667 38.35 55.2667C38.3947 55.2667 38.4389 55.2576 38.48 55.24L41.32 53.56C41.3995 53.5122 41.4568 53.4348 41.4793 53.3448C41.5018 53.2548 41.4877 53.1595 41.44 53.08L40 50.49C39.8956 50.333 39.8551 50.1421 39.8867 49.9563C39.9183 49.7704 40.0196 49.6036 40.17 49.49C41.1503 48.6762 42.042 47.7612 42.83 46.76C42.939 46.6194 43.0951 46.5228 43.2696 46.4879C43.444 46.453 43.6252 46.4821 43.78 46.57L46.37 48.02C46.4525 48.0634 46.5487 48.073 46.6382 48.0469C46.7278 48.0208 46.8037 47.9609 46.85 47.88L48.41 45C48.4529 44.9189 48.4622 44.8243 48.436 44.7364C48.4099 44.6485 48.3502 44.5743 48.27 44.53L45.69 43.08C45.5341 42.9914 45.4151 42.8499 45.3545 42.6811C45.294 42.5123 45.2959 42.3274 45.36 42.16C45.8052 40.9674 46.1203 39.7302 46.3 38.47C46.3238 38.2923 46.4106 38.129 46.5445 38.0097C46.6785 37.8905 46.8507 37.8232 47.03 37.82H50.03C50.1237 37.8174 50.2127 37.7783 50.2781 37.7111C50.3435 37.6438 50.38 37.5537 50.38 37.46L50.33 34.16C50.33 34.1145 50.3209 34.0694 50.3032 34.0275C50.2855 33.9856 50.2595 33.9477 50.2269 33.916C50.1942 33.8842 50.1556 33.8594 50.1132 33.8429C50.0707 33.8264 50.0255 33.8186 49.98 33.82H46.98C46.8011 33.8247 46.6266 33.7646 46.4887 33.6506C46.3508 33.5366 46.2589 33.3765 46.23 33.2C46.035 31.9431 45.6995 30.712 45.23 29.53C45.1615 29.3636 45.1551 29.178 45.212 29.0073C45.2689 28.8366 45.3853 28.692 45.54 28.6L48.08 27.09C48.12 27.0684 48.155 27.0385 48.1826 27.0022C48.2102 26.966 48.2298 26.9243 48.24 26.88C48.2603 26.8379 48.2709 26.7917 48.2709 26.745C48.2709 26.6982 48.2603 26.6521 48.24 26.61L46.56 23.78C46.512 23.7007 46.4354 23.643 46.346 23.6188C46.2566 23.5946 46.1613 23.6057 46.08 23.65L43.53 25.17C43.373 25.2743 43.1821 25.3149 42.9963 25.2833C42.8104 25.2517 42.6436 25.1503 42.53 25C41.7188 24.0172 40.8035 23.1253 39.8 22.34C39.6483 22.2277 39.5446 22.0625 39.5094 21.8771C39.4741 21.6918 39.5101 21.5 39.61 21.34L41 18.84C41.0418 18.7581 41.0517 18.6636 41.0276 18.5749C41.0036 18.4861 40.9474 18.4095 40.87 18.36L38 16.75C37.9573 16.7315 37.9114 16.722 37.865 16.722C37.8185 16.722 37.7726 16.7315 37.73 16.75C37.6856 16.7602 37.6439 16.7797 37.6077 16.8073C37.5715 16.8349 37.5416 16.8699 37.52 16.91L36.07 19.49C35.9848 19.6469 35.8458 19.7677 35.6786 19.8302C35.5113 19.8927 35.3271 19.8926 35.16 19.83C33.9681 19.3825 32.7307 19.0673 31.47 18.89C31.2906 18.8658 31.1259 18.7776 31.0065 18.6416C30.887 18.5056 30.8208 18.331 30.82 18.15V15.15C30.82 15.0571 30.7831 14.9681 30.7175 14.9025C30.6518 14.8368 30.5628 14.8 30.47 14.8H27.17C27.0762 14.8026 26.9872 14.8417 26.9219 14.9089C26.8565 14.9761 26.8199 15.0662 26.82 15.16V18.16C26.822 18.3386 26.7593 18.5119 26.6435 18.6479C26.5277 18.7839 26.3666 18.8734 26.19 18.9C24.9377 19.1012 23.7106 19.4365 22.53 19.9C22.3635 19.9685 22.178 19.9749 22.0073 19.9179C21.8366 19.861 21.692 19.7446 21.6 19.59L20.11 17.1C20.0576 17.0226 19.9797 16.966 19.89 16.94C19.806 16.9094 19.7139 16.9094 19.63 16.94L16.79 18.63C16.7496 18.6526 16.7142 18.6833 16.6861 18.7201C16.6579 18.7569 16.6376 18.7991 16.6264 18.8441C16.6152 18.889 16.6132 18.9358 16.6207 18.9815C16.6282 19.0273 16.645 19.071 16.67 19.11L18.18 21.65C18.2797 21.8083 18.3176 21.998 18.2862 22.1825C18.2548 22.367 18.1565 22.5335 18.01 22.65C17.0305 23.4577 16.1419 24.3698 15.36 25.37C15.2492 25.5232 15.0846 25.629 14.8992 25.6661C14.7138 25.7032 14.5212 25.6688 14.36 25.57L11.77 24.12C11.7289 24.1024 11.6847 24.0933 11.64 24.0933C11.5953 24.0933 11.551 24.1024 11.51 24.12C11.4215 24.149 11.3468 24.2095 11.3 24.29L9.71997 27.14C9.67658 27.2225 9.66693 27.3187 9.69304 27.4082C9.71916 27.4978 9.779 27.5737 9.85997 27.62L12.44 29.06C12.5543 29.126 12.6495 29.2206 12.7161 29.3346C12.7828 29.4486 12.8185 29.578 12.82 29.71V29.68Z" fill="#293961"/>
    <path d="M29.06 48.09C35.6874 48.09 41.06 42.7174 41.06 36.09C41.06 29.4625 35.6874 24.09 29.06 24.09C22.4326 24.09 17.06 29.4625 17.06 36.09C17.06 42.7174 22.4326 48.09 29.06 48.09Z" fill="white"/>
    <path d="M29.22 48.0901C30.6618 48.0686 32.0879 47.7874 33.43 47.2601C33.9288 45.8961 34.1728 44.4522 34.15 43.0001C34.121 41.0631 33.6235 39.1619 32.7001 37.459C31.7766 35.7561 30.4546 34.302 28.847 33.2211C27.2394 32.1402 25.394 31.4646 23.4685 31.252C21.543 31.0393 19.5947 31.296 17.79 32.0001C17.1284 33.8243 16.9192 35.7818 17.1801 37.7047C17.4411 39.6276 18.1645 41.4585 19.2883 43.0405C20.4121 44.6225 21.9028 45.9083 23.6325 46.7878C25.3623 47.6673 27.2796 48.1141 29.22 48.0901V48.0901Z" fill="#DAE0EF"/>
    <path d="M16.32 36.2501C16.2885 33.7286 17.0054 31.2545 18.3801 29.1405C19.7547 27.0265 21.7254 25.3676 24.0428 24.3736C26.3602 23.3795 28.9204 23.095 31.3995 23.5559C33.8787 24.0168 36.1655 25.2025 37.9707 26.963C39.776 28.7236 41.0187 30.9799 41.5417 33.4467C42.0647 35.9135 41.8445 38.48 40.9089 40.8216C39.9733 43.1633 38.3644 45.1749 36.2856 46.6022C34.2068 48.0294 31.7514 48.8082 29.23 48.8401C25.8492 48.8801 22.5907 47.5767 20.1701 45.2161C17.7495 42.8556 16.3648 39.6308 16.32 36.2501V36.2501ZM40.32 35.9501C40.2921 33.7253 39.6052 31.5587 38.346 29.7243C37.0869 27.8899 35.312 26.4701 33.246 25.6443C31.1799 24.8186 28.9154 24.6241 26.7387 25.0853C24.5621 25.5465 22.5711 26.6428 21.0175 28.2356C19.4639 29.8283 18.4175 31.846 18.0106 34.0334C17.6037 36.2208 17.8545 38.4798 18.7314 40.5247C19.6083 42.5696 21.0719 44.3085 22.937 45.5216C24.8022 46.7348 26.9852 47.3676 29.21 47.3401C32.1833 47.2979 35.0195 46.0823 37.1005 43.9582C39.1815 41.8341 40.3387 38.9736 40.32 36.0001V35.9501Z" fill="#21365F"/>
    <path d="M29.16 44.59C29.7123 44.59 30.16 44.1423 30.16 43.59C30.16 43.0377 29.7123 42.59 29.16 42.59C28.6077 42.59 28.16 43.0377 28.16 43.59C28.16 44.1423 28.6077 44.59 29.16 44.59Z" fill="#21365F"/>
    <path d="M28.97 29.59C29.5223 29.59 29.97 29.1423 29.97 28.59C29.97 28.0377 29.5223 27.59 28.97 27.59C28.4177 27.59 27.97 28.0377 27.97 28.59C27.97 29.1423 28.4177 29.59 28.97 29.59Z" fill="#293961"/>
    <path d="M21.7135 34.419C21.7356 34.338 21.7724 34.2606 21.824 34.187C21.8756 34.1059 21.9345 34.036 22.0008 33.977C22.0745 33.9181 22.1518 33.8776 22.2328 33.8555C22.3212 33.826 22.4096 33.826 22.498 33.8555C22.7706 33.745 23.0468 33.6529 23.3268 33.5792C23.6141 33.5056 23.8977 33.4651 24.1776 33.4577C24.4649 33.443 24.7448 33.4687 25.0174 33.535C25.2973 33.594 25.5662 33.7082 25.824 33.8776C26.0303 34.0102 26.2107 34.1759 26.3654 34.3748C26.5275 34.5737 26.6601 34.7837 26.7632 35.0047C26.94 35.4024 27.021 35.8002 27.0063 36.198C26.9916 36.5884 26.8995 36.9531 26.7301 37.2919C26.5606 37.6308 26.3212 37.9291 26.0118 38.187C25.7098 38.4448 25.3525 38.6326 24.94 38.7505C24.6306 38.8389 24.3139 38.8831 23.9897 38.8831C23.673 38.8757 23.3599 38.8536 23.0505 38.8168V39.8886C23.0505 39.9697 23.0542 40.0544 23.0616 40.1428C23.0689 40.2312 23.0689 40.3196 23.0616 40.408C23.0616 40.4964 23.0505 40.5811 23.0284 40.6621C23.0137 40.7505 22.9805 40.8315 22.929 40.9052C22.8406 41.0525 22.7264 41.1409 22.5864 41.1704C22.4465 41.2072 22.3102 41.1999 22.1776 41.1483C22.0524 41.1041 21.9419 41.0231 21.8461 40.9052C21.7577 40.7947 21.7135 40.6584 21.7135 40.4964V38.5074C21.5735 38.4338 21.4704 38.3417 21.4041 38.2312C21.3378 38.1207 21.3083 38.0102 21.3157 37.8997C21.3231 37.7818 21.3599 37.6713 21.4262 37.5682C21.4925 37.4651 21.5846 37.3803 21.7024 37.314V34.4853L21.7135 34.419ZM24.929 34.9052C24.6196 34.78 24.3028 34.7431 23.9787 34.7947C23.6619 34.8463 23.3525 34.942 23.0505 35.082V37.4908C23.3967 37.5498 23.7503 37.5645 24.1113 37.535C24.4722 37.5056 24.8037 37.3951 25.1058 37.2036C25.3194 37.0636 25.4667 36.8868 25.5478 36.6732C25.6288 36.4595 25.6583 36.2422 25.6362 36.0212C25.6141 35.8002 25.5404 35.5903 25.4152 35.3914C25.2899 35.1851 25.1279 35.0231 24.929 34.9052ZM28.6463 41.0599C28.4547 41.0231 28.289 40.9347 28.149 40.7947C28.0164 40.6547 27.9501 40.4816 27.9501 40.2754V35.6234C27.8175 35.6455 27.6886 35.6308 27.5634 35.5792C27.4381 35.5203 27.3387 35.4466 27.265 35.3582C27.1914 35.2625 27.1509 35.1557 27.1435 35.0378C27.1288 34.9126 27.1656 34.7947 27.254 34.6842C27.3498 34.559 27.4639 34.4559 27.5965 34.3748C27.7291 34.2864 27.8691 34.2164 28.0164 34.1649C28.1637 34.1059 28.3148 34.0581 28.4695 34.0212C28.6315 33.9844 28.7862 33.9512 28.9335 33.9218C29.3461 33.8555 29.7586 33.8408 30.1711 33.8776C30.5836 33.9071 30.9741 33.9954 31.3424 34.1428C31.7107 34.2901 32.0459 34.4964 32.3479 34.7616C32.6573 35.0268 32.9078 35.3582 33.0993 35.756C33.2172 35.9991 33.3019 36.2533 33.3534 36.5185C33.405 36.7763 33.4345 37.0378 33.4418 37.303C33.4492 37.6492 33.4087 37.9844 33.3203 38.3085C33.2319 38.6326 33.0993 38.9384 32.9225 39.2257C32.7457 39.5056 32.5321 39.756 32.2816 39.977C32.0311 40.198 31.7512 40.3822 31.4418 40.5295C31.1693 40.6547 30.8783 40.7468 30.5689 40.8058C30.2669 40.8647 29.9685 40.9163 29.6739 40.9605C29.5265 40.9826 29.3682 41.0047 29.1987 41.0268C29.0367 41.0562 28.8783 41.071 28.7236 41.071L28.6463 41.0599ZM29.8396 35.1925C29.7439 35.1925 29.6518 35.1962 29.5634 35.2036C29.4823 35.2109 29.3939 35.222 29.2982 35.2367V39.6676C29.3424 39.6676 29.3792 39.664 29.4087 39.6566C29.4381 39.6492 29.4676 39.6455 29.4971 39.6455C29.5265 39.6455 29.5523 39.6419 29.5744 39.6345C29.6776 39.6198 29.7623 39.6087 29.8286 39.6013C29.8949 39.594 29.9575 39.5866 30.0164 39.5792C30.0753 39.5645 30.1343 39.5498 30.1932 39.535C30.2595 39.5203 30.3332 39.5019 30.4142 39.4798C30.8415 39.3693 31.1766 39.1962 31.4197 38.9605C31.6702 38.7174 31.858 38.3859 31.9833 37.966C32.0643 37.7229 32.1011 37.4761 32.0938 37.2257C32.0864 36.9752 32.0385 36.7358 31.9501 36.5074C31.8691 36.2791 31.7475 36.0728 31.5855 35.8886C31.4234 35.6971 31.2245 35.5461 30.9888 35.4356C30.7973 35.3472 30.6057 35.2883 30.4142 35.2588C30.23 35.2293 30.0385 35.2072 29.8396 35.1925ZM35.615 40.3859C35.5929 40.5479 35.534 40.6879 35.4382 40.8058C35.3425 40.9236 35.232 41.0047 35.1067 41.0489C34.9815 41.0931 34.8526 41.0931 34.72 41.0489C34.5874 41.0047 34.4769 40.9052 34.3885 40.7505C34.3517 40.6916 34.3222 40.629 34.3001 40.5627C34.278 40.4964 34.267 40.4301 34.267 40.3638V37.756C34.1712 37.6971 34.0975 37.6198 34.046 37.524C34.0018 37.4282 33.9797 37.3288 33.9797 37.2257C33.9797 37.1152 34.0054 37.012 34.057 36.9163C34.1086 36.8205 34.1786 36.7395 34.267 36.6732C34.2596 36.5332 34.2559 36.4153 34.2559 36.3196C34.2633 36.2238 34.267 36.1317 34.267 36.0433C34.267 35.9549 34.267 35.8665 34.267 35.7781C34.267 35.6824 34.2596 35.5719 34.2449 35.4466C34.2375 35.3435 34.2117 35.2441 34.1675 35.1483C34.1307 35.0452 34.0975 34.9457 34.0681 34.85C34.0386 34.7468 34.0275 34.6437 34.0349 34.5406C34.0423 34.4374 34.0865 34.338 34.1675 34.2422C34.278 34.1096 34.4106 34.0323 34.5653 34.0102C34.7274 33.9807 34.8894 33.9586 35.0515 33.9439C35.3903 33.9218 35.7255 33.9107 36.057 33.9107C36.3959 33.9107 36.7347 33.9034 37.0736 33.8886C37.1694 33.8886 37.2725 33.8813 37.383 33.8665C37.4935 33.8444 37.604 33.8297 37.7145 33.8223C37.825 33.8076 37.9355 33.8076 38.046 33.8223C38.1565 33.8297 38.2559 33.8592 38.3443 33.9107C38.4548 33.977 38.5358 34.0617 38.5874 34.1649C38.639 34.268 38.6611 34.3748 38.6537 34.4853C38.6537 34.5958 38.6242 34.7026 38.5653 34.8058C38.5064 34.9089 38.4217 34.9899 38.3112 35.0489C38.1196 35.152 37.9097 35.2072 37.6813 35.2146C37.453 35.2146 37.2356 35.2183 37.0294 35.2257C36.7863 35.233 36.5432 35.2367 36.3001 35.2367C36.057 35.2293 35.8139 35.233 35.5708 35.2477C35.5856 35.3877 35.5966 35.5535 35.604 35.745C35.6113 35.9365 35.615 36.2164 35.615 36.5848C35.8508 36.5848 36.0902 36.5811 36.3333 36.5737C36.5763 36.5664 36.8158 36.5443 37.0515 36.5074C37.1767 36.4927 37.3093 36.4669 37.4493 36.4301C37.5892 36.3859 37.7218 36.3711 37.8471 36.3859C37.9944 36.4006 38.1233 36.4559 38.2338 36.5516C38.3443 36.6474 38.418 36.7579 38.4548 36.8831C38.499 37.001 38.499 37.1262 38.4548 37.2588C38.4106 37.384 38.3112 37.4908 38.1565 37.5792C37.9723 37.6824 37.7734 37.7597 37.5598 37.8113C37.3535 37.8555 37.1399 37.8886 36.9189 37.9107C36.6979 37.9255 36.4769 37.9328 36.2559 37.9328C36.0349 37.9255 35.8213 37.9218 35.615 37.9218V40.3859Z" fill="#293961"/>
</svg>
