<svg width="30" height="47" viewBox="0 0 30 47" fill="none" xmlns="http://www.w3.org/2000/svg">
<g clip-path="url(#clip0_46:192)">
<path d="M27.9898 16.3967L16.7178 0L2.65182 16.7871C1.6296 18.0096 0.921476 19.4598 0.486135 20.9127C0.0838569 22.2517 -0.067686 23.6477 0.0315057 25.0329C0.172027 27.0225 0.836061 28.9877 2.02636 30.7252L8.13492 39.6135L13.2102 46.9973L27.3065 30.2536C30.6377 26.2933 30.8994 20.6687 27.9898 16.3967ZM15.4861 16.5052L15.4586 16.8548L15.442 17.0907C15.2134 19.0532 14.1911 20.7826 12.6895 21.9509C12.4663 22.1271 12.2321 22.2897 11.9924 22.4388C11.9841 22.4442 11.9758 22.4496 11.9676 22.455C11.0776 22.9999 10.0581 23.3631 8.96427 23.4986V23.5122C10.4274 23.6179 11.7416 24.2387 12.7225 25.1901C12.83 25.2958 12.9347 25.4042 13.0311 25.5154C13.9432 26.5481 14.497 27.8953 14.497 29.3672V29.3997C14.497 29.5027 14.4942 29.6057 14.4859 29.7087C14.4859 29.7738 14.4832 29.8416 14.4777 29.9066L14.4556 30.2129L13.7696 39.215L8.37188 31.3704C8.37188 31.3704 8.37463 31.3379 8.37463 31.3351C8.38015 31.2782 8.44627 30.0991 8.50138 29.3211C8.50414 29.3157 8.50414 29.3103 8.50414 29.3022C8.50689 29.2642 8.50965 29.2208 8.5124 29.1802C8.51516 29.1612 8.51516 29.1422 8.51791 29.1205C8.52067 29.0663 8.52067 29.0094 8.52067 28.9552C8.52067 26.8084 6.79032 25.0546 4.62739 24.9732C4.57504 24.9705 4.52269 24.9705 4.47034 24.9705H4.01295L4.23338 22.0159H4.62739C4.77618 22.0159 4.92221 22.0078 5.06824 21.9942C7.30557 21.7936 9.09929 20.0805 9.38033 17.9011V17.8984C9.40237 17.7304 9.41615 17.5542 9.4189 17.3807L9.54289 15.6432L9.55116 15.635L16.1391 7.80126L15.4861 16.5052ZM23.6557 27.4101L20.3713 31.3216L17.853 27.6649C16.1336 25.1657 16.299 21.8506 18.258 19.5303L21.5341 15.6513L24.0414 19.2917C25.7635 21.7855 25.6037 25.0898 23.6557 27.4101Z" fill="#00D369"/>
</g>
<defs>
<clipPath id="clip0_46:192">
<rect width="30" height="47" fill="white"/>
</clipPath>
</defs>
</svg>
