<svg width="18" height="17" viewBox="0 0 18 17" fill="none" xmlns="http://www.w3.org/2000/svg">
<path d="M4.06833 7.44149C5.38833 9.91774 7.515 11.939 10.1092 13.2077L12.1258 11.2827C12.3733 11.0465 12.74 10.9677 13.0608 11.0727C14.0875 11.3965 15.1967 11.5715 16.3333 11.5715C16.8375 11.5715 17.25 11.9652 17.25 12.4465V15.5002C17.25 15.9815 16.8375 16.3752 16.3333 16.3752C7.72583 16.3752 0.75 9.71649 0.75 1.50024C0.75 1.01899 1.1625 0.625244 1.66667 0.625244H4.875C5.37917 0.625244 5.79167 1.01899 5.79167 1.50024C5.79167 2.59399 5.975 3.64399 6.31417 4.62399C6.415 4.93024 6.34167 5.27149 6.085 5.51649L4.06833 7.44149Z" fill="#293961"/>
</svg>
