<svg width="79" height="79" viewBox="0 0 79 79" fill="none" xmlns="http://www.w3.org/2000/svg">
    <path d="M14 59.12C21.732 59.12 28 52.852 28 45.12C28 37.388 21.732 31.12 14 31.12C6.26801 31.12 0 37.388 0 45.12C0 52.852 6.26801 59.12 14 59.12Z" fill="#CFE9FC"/>
    <path d="M49 24C55.6274 24 61 18.6274 61 12C61 5.37258 55.6274 0 49 0C42.3726 0 37 5.37258 37 12C37 18.6274 42.3726 24 49 24Z" fill="#CFE9FC"/>
    <path d="M58.25 78.76C69.2957 78.76 78.25 69.8057 78.25 58.76C78.25 47.7143 69.2957 38.76 58.25 38.76C47.2043 38.76 38.25 47.7143 38.25 58.76C38.25 69.8057 47.2043 78.76 58.25 78.76Z" fill="#CFE9FC"/>
    <path d="M66.8778 39.1951L13.7108 33.3254L10.1993 65.1322L63.3663 71.0019L66.8778 39.1951Z" fill="white"/>
    <path d="M63.36 71.0001L31.56 67.49C31.8712 64.6719 32.7344 61.9426 34.1004 59.458C35.4664 56.9734 37.3084 54.7822 39.5212 53.0095C41.734 51.2369 44.2744 49.9174 46.9971 49.1265C49.7199 48.3356 52.5718 48.0888 55.39 48.4001L65.73 49.5401L63.36 71.0001Z" fill="#DAE0EF"/>
    <path d="M63.36 71.75H63.28L10.11 65.88C10.0118 65.8706 9.91659 65.8409 9.8305 65.7927C9.74441 65.7445 9.66931 65.6788 9.61 65.6C9.54493 65.5255 9.4969 65.4377 9.46927 65.3427C9.44163 65.2477 9.43506 65.1478 9.45 65.05L13 33.24C13.0251 33.0435 13.1258 32.8646 13.2809 32.7413C13.4359 32.618 13.6329 32.5602 13.83 32.58L67 38.45C67.1976 38.4726 67.3781 38.5727 67.5019 38.7283C67.6256 38.884 67.6825 39.0824 67.66 39.28L64.15 71.08C64.1397 71.1794 64.1096 71.2757 64.0615 71.3633C64.0134 71.4508 63.9483 71.5279 63.87 71.59C63.7268 71.7068 63.5442 71.7641 63.36 71.75ZM11 64.47L62.68 70.17L66.03 39.86L14.37 34.15L11 64.47Z" fill="#293961"/>
    <path d="M65.8522 23.9335L14.5518 32.1229L19.1975 61.2244L70.4979 53.035L65.8522 23.9335Z" fill="white"/>
    <path d="M70.49 53L25.38 60.23C24.147 52.5123 26.0302 44.6208 30.6154 38.2915C35.2006 31.9622 42.1123 27.7135 49.83 26.48L65.83 23.92L70.49 53Z" fill="#DAE0EF"/>
    <path d="M19.19 62C19.0327 61.9982 18.8794 61.9495 18.75 61.86C18.6694 61.8029 18.6013 61.73 18.5498 61.6458C18.4982 61.5616 18.4643 61.4677 18.45 61.37L13.81 32.27C13.7944 32.1734 13.798 32.0747 13.8208 31.9795C13.8436 31.8844 13.885 31.7947 13.9426 31.7156C14.0003 31.6366 14.073 31.5698 14.1567 31.519C14.2404 31.4683 14.3332 31.4346 14.43 31.42L65.73 23.22C65.9259 23.191 66.1253 23.2395 66.2859 23.3553C66.4466 23.4711 66.5557 23.645 66.59 23.84L71.23 52.94C71.2471 53.0373 71.2445 53.1371 71.2224 53.2334C71.2004 53.3297 71.1592 53.4207 71.1014 53.5008C71.0436 53.581 70.9704 53.6487 70.886 53.7001C70.8016 53.7515 70.7077 53.7855 70.61 53.8L19.31 62H19.19ZM15.41 32.74L19.82 60.36L69.63 52.36L65.22 24.78L15.41 32.74Z" fill="#293961"/>
    <path d="M66.7294 20.1764L11.0676 14.0312L7.74487 44.1284L63.4067 50.2735L66.7294 20.1764Z" fill="white"/>
    <path d="M63.41 50.26L37.29 47.38C37.5962 44.5956 38.4481 41.8987 39.7971 39.4437C41.146 36.9886 42.9656 34.8234 45.1517 33.0719C47.3379 31.3204 49.8477 30.0169 52.5379 29.2358C55.2281 28.4548 58.0458 28.2116 60.83 28.52L65.75 29.06L63.41 50.26Z" fill="#DAE0EF"/>
    <path d="M63.42 51H63.33L7.67001 44.87C7.47417 44.8426 7.29575 44.7427 7.17001 44.59C7.09932 44.5107 7.04735 44.4165 7.01793 44.3144C6.98851 44.2122 6.98238 44.1048 7.00001 44L10.32 13.9C10.3451 13.7036 10.4458 13.5246 10.6009 13.4014C10.7559 13.2781 10.9529 13.2202 11.15 13.24L66.81 19.38C67.0076 19.4026 67.1881 19.5027 67.3118 19.6584C67.4356 19.814 67.4925 20.0125 67.47 20.21L64.15 50.31C64.1265 50.5072 64.0258 50.687 63.87 50.81C63.7467 50.9239 63.5876 50.9911 63.42 51ZM8.58001 43.46L62.75 49.46L65.91 20.85L11.74 14.85L8.58001 43.46Z" fill="#293961"/>
    <path d="M71.75 7H15.75V39H71.75V7Z" fill="white"/>
    <path d="M71.75 39H29.75C29.75 30.5131 33.1214 22.3737 39.1226 16.3726C45.1237 10.3714 53.2631 7 61.75 7H71.75V39Z" fill="#DAE0EF"/>
    <path d="M71.75 39.75H15.75C15.5519 39.7474 15.3626 39.6676 15.2225 39.5275C15.0824 39.3874 15.0026 39.1981 15 39V7C15.0026 6.80189 15.0824 6.61263 15.2225 6.47253C15.3626 6.33244 15.5519 6.25259 15.75 6.25H71.75C71.9489 6.25 72.1397 6.32902 72.2803 6.46967C72.421 6.61032 72.5 6.80109 72.5 7V39C72.5 39.1989 72.421 39.3897 72.2803 39.5303C72.1397 39.671 71.9489 39.75 71.75 39.75ZM16.5 38.25H71V7.75H16.5V38.25Z" fill="#293961"/>
    <path d="M61.75 34H25.75C25.75 32.6739 25.2232 31.4021 24.2855 30.4645C23.3479 29.5268 22.0761 29 20.75 29V17C22.0761 17 23.3479 16.4732 24.2855 15.5355C25.2232 14.5979 25.75 13.3261 25.75 12H61.75C61.75 13.3261 62.2768 14.5979 63.2145 15.5355C64.1521 16.4732 65.4239 17 66.75 17V29C65.4239 29 64.1521 29.5268 63.2145 30.4645C62.2768 31.4021 61.75 32.6739 61.75 34Z" fill="white"/>
    <path d="M61.75 34H38.75C38.75 28.1652 41.0678 22.5695 45.1936 18.4437C49.3194 14.3179 54.9152 12 60.75 12H61.75C61.75 13.3261 62.2768 14.5979 63.2145 15.5355C64.1521 16.4732 65.4239 17 66.75 17V29C65.4239 29 64.1521 29.5268 63.2145 30.4645C62.2768 31.4021 61.75 32.6739 61.75 34Z" fill="#DAE0EF"/>
    <path d="M61.75 34.75H25.75C25.5519 34.7474 25.3626 34.6676 25.2225 34.5275C25.0824 34.3874 25.0026 34.1981 25 34C25 32.8728 24.5522 31.7918 23.7552 30.9948C22.9582 30.1978 21.8772 29.75 20.75 29.75C20.5519 29.7474 20.3626 29.6676 20.2225 29.5275C20.0824 29.3874 20.0026 29.1981 20 29V17C20.0026 16.8019 20.0824 16.6126 20.2225 16.4725C20.3626 16.3324 20.5519 16.2526 20.75 16.25C21.8772 16.25 22.9582 15.8022 23.7552 15.0052C24.5522 14.2082 25 13.1272 25 12C25.0026 11.8019 25.0824 11.6126 25.2225 11.4725C25.3626 11.3324 25.5519 11.2526 25.75 11.25H61.75C61.9489 11.25 62.1397 11.329 62.2803 11.4697C62.421 11.6103 62.5 11.8011 62.5 12C62.5026 13.1264 62.9513 14.2058 63.7477 15.0023C64.5442 15.7987 65.6236 16.2474 66.75 16.25C66.9489 16.25 67.1397 16.329 67.2803 16.4697C67.421 16.6103 67.5 16.8011 67.5 17V29C67.5 29.1989 67.421 29.3897 67.2803 29.5303C67.1397 29.671 66.9489 29.75 66.75 29.75C65.6236 29.7526 64.5442 30.2013 63.7477 30.9977C62.9513 31.7942 62.5026 32.8736 62.5 34C62.5 34.1989 62.421 34.3897 62.2803 34.5303C62.1397 34.671 61.9489 34.75 61.75 34.75ZM26.45 33.25H61.05C61.2193 31.9884 61.8018 30.8184 62.7064 29.9229C63.611 29.0273 64.7868 28.4566 66.05 28.3V17.7C64.7874 17.5417 63.6125 16.9705 62.7082 16.0753C61.8039 15.18 61.221 14.0109 61.05 12.75H26.45C26.2831 14.0042 25.7079 15.1686 24.8133 16.0633C23.9186 16.9579 22.7542 17.5331 21.5 17.7V28.3C22.7549 28.4653 23.9201 29.0399 24.8151 29.9349C25.7101 30.8299 26.2847 31.9951 26.45 33.25Z" fill="#293961"/>
    <path d="M56.75 26.5C58.683 26.5 60.25 24.933 60.25 23C60.25 21.067 58.683 19.5 56.75 19.5C54.817 19.5 53.25 21.067 53.25 23C53.25 24.933 54.817 26.5 56.75 26.5Z" fill="white"/>
    <path d="M31.75 26.5C33.683 26.5 35.25 24.933 35.25 23C35.25 21.067 33.683 19.5 31.75 19.5C29.817 19.5 28.25 21.067 28.25 23C28.25 24.933 29.817 26.5 31.75 26.5Z" fill="white"/>
    <path d="M60.25 23C60.2599 22.8469 60.2599 22.6932 60.25 22.54C60.1 22.54 59.95 22.54 59.79 22.54C58.8617 22.54 57.9715 22.9088 57.3151 23.5652C56.6587 24.2215 56.29 25.1118 56.29 26.04C56.2802 26.1899 56.2802 26.3402 56.29 26.49C56.4387 26.5166 56.5891 26.5333 56.74 26.54C57.2038 26.5414 57.6633 26.4505 58.0918 26.2727C58.5202 26.0949 58.909 25.8338 59.2356 25.5044C59.5622 25.175 59.8201 24.784 59.9942 24.354C60.1683 23.9241 60.2553 23.4639 60.25 23Z" fill="#DAE0EF"/>
    <path d="M35.25 23C35.2453 22.5682 35.1606 22.1409 35 21.74C34.4708 21.5351 33.8996 21.4624 33.3359 21.5281C32.7722 21.5938 32.233 21.796 31.7651 22.1171C31.2972 22.4383 30.9147 22.8687 30.6507 23.371C30.3867 23.8734 30.2491 24.4325 30.25 25C30.2524 25.4312 30.3337 25.8582 30.49 26.26C30.8921 26.4154 31.319 26.4968 31.75 26.5C32.6783 26.5 33.5685 26.1313 34.2249 25.4749C34.8813 24.8185 35.25 23.9283 35.25 23Z" fill="#DAE0EF"/>
    <path d="M56.75 27.25C55.9094 27.25 55.0877 27.0007 54.3888 26.5337C53.6899 26.0668 53.1452 25.403 52.8235 24.6264C52.5018 23.8498 52.4177 22.9953 52.5817 22.1709C52.7457 21.3464 53.1504 20.5892 53.7448 19.9948C54.3392 19.4004 55.0965 18.9957 55.9209 18.8317C56.7453 18.6677 57.5998 18.7518 58.3764 19.0735C59.153 19.3952 59.8168 19.9399 60.2837 20.6388C60.7507 21.3377 61 22.1594 61 23C60.9974 24.1264 60.5487 25.2058 59.7523 26.0023C58.9558 26.7987 57.8764 27.2474 56.75 27.25ZM56.75 20.25C56.2061 20.25 55.6744 20.4113 55.2222 20.7135C54.77 21.0156 54.4175 21.4451 54.2093 21.9476C54.0012 22.4501 53.9467 23.0031 54.0528 23.5365C54.159 24.0699 54.4209 24.56 54.8055 24.9445C55.1901 25.3291 55.6801 25.5911 56.2135 25.6972C56.747 25.8033 57.2999 25.7488 57.8024 25.5407C58.3049 25.3325 58.7344 24.9801 59.0365 24.5278C59.3387 24.0756 59.5 23.5439 59.5 23C59.5 22.2707 59.2103 21.5712 58.6945 21.0555C58.1788 20.5397 57.4793 20.25 56.75 20.25Z" fill="#293961"/>
    <path d="M31.75 27.25C30.9094 27.25 30.0877 27.0007 29.3888 26.5337C28.6899 26.0668 28.1452 25.403 27.8235 24.6264C27.5018 23.8498 27.4177 22.9953 27.5817 22.1709C27.7457 21.3464 28.1504 20.5892 28.7448 19.9948C29.3392 19.4004 30.0964 18.9957 30.9209 18.8317C31.7453 18.6677 32.5998 18.7518 33.3764 19.0735C34.153 19.3952 34.8168 19.9399 35.2837 20.6388C35.7507 21.3377 36 22.1594 36 23C35.9974 24.1264 35.5487 25.2058 34.7523 26.0023C33.9558 26.7987 32.8764 27.2474 31.75 27.25ZM31.75 20.25C31.2061 20.25 30.6744 20.4113 30.2222 20.7135C29.7699 21.0156 29.4175 21.4451 29.2093 21.9476C29.0012 22.4501 28.9467 23.0031 29.0528 23.5365C29.159 24.0699 29.4209 24.56 29.8055 24.9445C30.1901 25.3291 30.6801 25.5911 31.2135 25.6972C31.747 25.8033 32.2999 25.7488 32.8024 25.5407C33.3049 25.3325 33.7344 24.9801 34.0365 24.5278C34.3387 24.0756 34.5 23.5439 34.5 23C34.5 22.2707 34.2103 21.5712 33.6945 21.0555C33.1788 20.5397 32.4793 20.25 31.75 20.25Z" fill="#293961"/>
    <path d="M43.76 30C42.9358 30.0208 42.124 29.7973 41.4265 29.3579C40.729 28.9184 40.177 28.2824 39.84 27.53C39.8004 27.4381 39.7793 27.3393 39.778 27.2393C39.7767 27.1392 39.7951 27.0399 39.8323 26.9469C39.8694 26.854 39.9246 26.7694 39.9946 26.6978C40.0645 26.6263 40.1479 26.5693 40.24 26.53C40.3323 26.4893 40.4319 26.4676 40.5328 26.4663C40.6337 26.465 40.7339 26.484 40.8272 26.5223C40.9206 26.5606 41.0053 26.6173 41.0762 26.6891C41.1471 26.7609 41.2028 26.8462 41.24 26.94C41.4681 27.4164 41.8294 27.8164 42.2803 28.0915C42.7311 28.3666 43.2521 28.5051 43.78 28.49C44.4527 28.5285 45.1134 28.3002 45.6189 27.8546C46.1243 27.4091 46.4337 26.7822 46.48 26.11C46.48 25.02 46.01 23.72 43.77 23.72C40.67 23.72 39.56 21.72 39.56 19.83C39.622 18.7717 40.0945 17.7793 40.8771 17.064C41.6596 16.3487 42.6903 15.967 43.75 16C44.5745 15.9841 45.3855 16.2106 46.0824 16.6515C46.7792 17.0923 47.3313 17.7282 47.67 18.48C47.7107 18.5724 47.7324 18.672 47.7337 18.7729C47.7351 18.8738 47.716 18.9739 47.6777 19.0673C47.6395 19.1606 47.5827 19.2453 47.5109 19.3162C47.4392 19.3872 47.3538 19.4429 47.26 19.48C47.1685 19.5225 47.0693 19.5458 46.9685 19.5485C46.8676 19.5512 46.7673 19.5333 46.6737 19.4959C46.58 19.4584 46.495 19.4022 46.4239 19.3307C46.3527 19.2592 46.297 19.1739 46.26 19.08C46.0351 18.6026 45.6761 18.2009 45.2269 17.9239C44.7777 17.6469 44.2576 17.5066 43.73 17.52C43.0599 17.4782 42.4 17.6992 41.8902 18.1361C41.3805 18.5731 41.0611 19.1915 41 19.86C41 20.95 41.47 22.25 43.71 22.25C46.81 22.25 47.92 24.25 47.92 26.14C47.8706 27.2002 47.4071 28.1986 46.6291 28.9205C45.8511 29.6424 44.8209 30.03 43.76 30Z" fill="#293961"/>
    <path d="M43.75 17.47C43.6511 17.4713 43.553 17.4529 43.4614 17.4156C43.3698 17.3784 43.2866 17.3232 43.2167 17.2533C43.1468 17.1834 43.0916 17.1002 43.0544 17.0086C43.0171 16.917 42.9987 16.8189 43 16.72V15C43 14.8011 43.079 14.6103 43.2197 14.4697C43.3603 14.329 43.5511 14.25 43.75 14.25C43.9489 14.25 44.1397 14.329 44.2803 14.4697C44.421 14.6103 44.5 14.8011 44.5 15V16.72C44.5 16.9189 44.421 17.1097 44.2803 17.2503C44.1397 17.391 43.9489 17.47 43.75 17.47Z" fill="#21365F"/>
    <path d="M43.75 31.75C43.5511 31.75 43.3603 31.671 43.2197 31.5303C43.079 31.3897 43 31.1989 43 31V29.27C43 29.0711 43.079 28.8803 43.2197 28.7397C43.3603 28.599 43.5511 28.52 43.75 28.52C43.9489 28.52 44.1397 28.599 44.2803 28.7397C44.421 28.8803 44.5 29.0711 44.5 29.27V31C44.4974 31.1981 44.4176 31.3874 44.2775 31.5275C44.1374 31.6676 43.9481 31.7474 43.75 31.75Z" fill="#21365F"/>
    <path d="M51.52 66.45H51.44L37.16 64.86C37.0587 64.8504 36.9605 64.8201 36.8715 64.7708C36.7825 64.7216 36.7045 64.6545 36.6426 64.5738C36.5807 64.4931 36.536 64.4005 36.5115 64.3018C36.487 64.203 36.483 64.1003 36.5 64C36.51 63.9013 36.5394 63.8056 36.5866 63.7183C36.6339 63.6311 36.6979 63.554 36.7751 63.4917C36.8523 63.4294 36.9411 63.383 37.0364 63.3553C37.1316 63.3275 37.2314 63.3189 37.33 63.33L51.6 65C51.7989 65.0106 51.9855 65.0998 52.1186 65.248C52.2518 65.3961 52.3206 65.5911 52.31 65.79C52.2994 65.9889 52.2102 66.1755 52.062 66.3086C51.9139 66.4418 51.7189 66.5106 51.52 66.5V66.45Z" fill="#293961"/>
    <path d="M58.89 67.2601H58.8L55.33 66.88C55.1356 66.8537 54.9593 66.7523 54.8388 66.5974C54.7183 66.4426 54.6633 66.2467 54.6855 66.0518C54.7078 65.8569 54.8055 65.6785 54.9577 65.5548C55.11 65.4311 55.3047 65.3719 55.5 65.3901L58.97 65.77C59.1689 65.7807 59.3555 65.8698 59.4886 66.018C59.6218 66.1662 59.6906 66.3611 59.68 66.56C59.6694 66.759 59.5802 66.9455 59.432 67.0787C59.2839 67.2118 59.0889 67.2807 58.89 67.27V67.2601Z" fill="#293961"/>
    <path d="M29.75 57.7199C29.5719 57.7199 29.3997 57.6564 29.2641 57.541C29.1286 57.4256 29.0385 57.2657 29.01 57.0899L28.4 53.0899C28.3809 52.8991 28.4357 52.7081 28.5531 52.5564C28.6705 52.4047 28.8415 52.3037 29.0311 52.2743C29.2207 52.2448 29.4143 52.2891 29.5722 52.3981C29.7301 52.507 29.8402 52.6723 29.88 52.8599L30.5 56.8599C30.5287 57.0561 30.4785 57.2557 30.3604 57.415C30.2424 57.5742 30.066 57.6803 29.87 57.7099L29.75 57.7199Z" fill="#293961"/>
    <path d="M27.47 56.05C27.2827 56.0472 27.1032 55.9743 26.9669 55.8457C26.8306 55.7171 26.7474 55.5422 26.7336 55.3554C26.7198 55.1685 26.7764 54.9832 26.8924 54.8361C27.0083 54.6889 27.1751 54.5904 27.36 54.5601L31.31 54C31.4097 53.9789 31.5127 53.9783 31.6127 53.9984C31.7126 54.0184 31.8075 54.0585 31.8914 54.1164C31.9753 54.1743 32.0465 54.2487 32.1007 54.335C32.1549 54.4214 32.1909 54.5179 32.2066 54.6186C32.2222 54.7193 32.2172 54.8222 32.1917 54.9209C32.1663 55.0196 32.121 55.1121 32.0586 55.1927C31.9962 55.2733 31.9181 55.3404 31.8289 55.3898C31.7397 55.4392 31.6414 55.4699 31.54 55.48L27.59 56L27.47 56.05Z" fill="#293961"/>
    <path d="M35.49 54.82C35.2924 54.8505 35.0908 54.8013 34.9295 54.6831C34.7683 54.565 34.6605 54.3876 34.63 54.19C34.5995 53.9924 34.6488 53.7908 34.7669 53.6295C34.885 53.4682 35.0624 53.3605 35.26 53.33C35.3578 53.3149 35.4577 53.3192 35.5539 53.3427C35.65 53.3662 35.7406 53.4084 35.8205 53.4669C35.9003 53.5254 35.9679 53.599 36.0193 53.6836C36.0707 53.7683 36.1049 53.8622 36.12 53.96C36.1351 54.0578 36.1308 54.1577 36.1073 54.2538C36.0838 54.35 36.0416 54.4406 35.9831 54.5205C35.9246 54.6003 35.851 54.6679 35.7664 54.7193C35.6817 54.7707 35.5878 54.8049 35.49 54.82Z" fill="#293961"/>
    <path d="M39.44 54.2C39.3434 54.2156 39.2447 54.212 39.1495 54.1892C39.0544 54.1664 38.9647 54.125 38.8856 54.0674C38.8066 54.0097 38.7398 53.937 38.689 53.8533C38.6383 53.7696 38.6046 53.6768 38.59 53.58C38.5689 53.4803 38.5683 53.3773 38.5883 53.2773C38.6083 53.1774 38.6485 53.0826 38.7064 52.9987C38.7643 52.9147 38.8387 52.8435 38.925 52.7893C39.0114 52.7351 39.1078 52.6991 39.2086 52.6835C39.3093 52.6678 39.4122 52.6728 39.5109 52.6983C39.6096 52.7237 39.7021 52.769 39.7827 52.8314C39.8633 52.8938 39.9304 52.9719 39.9798 53.0611C40.0292 53.1503 40.0599 53.2486 40.07 53.35C40.0987 53.5462 40.0485 53.7457 39.9304 53.905C39.8124 54.0643 39.6361 54.1704 39.44 54.2Z" fill="#293961"/>
    <path d="M44.39 53.4399C44.2222 53.4268 44.0636 53.3576 43.9399 53.2434C43.8162 53.1293 43.7345 52.9768 43.7079 52.8105C43.6814 52.6443 43.7115 52.4739 43.7935 52.3269C43.8755 52.1799 44.0046 52.0647 44.16 51.9999C44.3562 51.9713 44.5557 52.0215 44.715 52.1395C44.8743 52.2576 44.9804 52.4339 45.01 52.6299C45.0279 52.8183 44.9739 53.0064 44.8589 53.1566C44.7439 53.3068 44.5764 53.408 44.39 53.4399Z" fill="#293961"/>
    <path d="M51.3 52.3601C51.1091 52.3791 50.9182 52.3243 50.7665 52.2069C50.6148 52.0896 50.5138 51.9185 50.4843 51.7289C50.4549 51.5394 50.4992 51.3458 50.6081 51.1879C50.717 51.03 50.8823 50.9198 51.07 50.8801C51.1697 50.8589 51.2727 50.8584 51.3727 50.8784C51.4726 50.8984 51.5674 50.9385 51.6513 50.9964C51.7353 51.0543 51.8065 51.1287 51.8607 51.215C51.9149 51.3014 51.9509 51.3979 51.9665 51.4986C51.9822 51.5993 51.9772 51.7022 51.9517 51.8009C51.9263 51.8996 51.881 51.9921 51.8186 52.0727C51.7562 52.1534 51.6781 52.2204 51.5889 52.2698C51.4997 52.3192 51.4014 52.3499 51.3 52.3601Z" fill="#293961"/>
    <path d="M58.45 45.88H58.37L54.37 45.48C54.1911 45.4379 54.034 45.3315 53.9284 45.1812C53.8227 45.0308 53.776 44.847 53.7969 44.6644C53.8179 44.4819 53.9051 44.3134 54.0421 44.1909C54.1791 44.0684 54.3563 44.0005 54.54 44L58.54 44.4C58.7231 44.4281 58.8892 44.523 59.0065 44.6664C59.1238 44.8098 59.1839 44.9915 59.1752 45.1765C59.1665 45.3615 59.0897 45.5368 58.9594 45.6685C58.8292 45.8002 58.6549 45.8791 58.47 45.89L58.45 45.88Z" fill="#293961"/>
    <path d="M56.26 47.6799H56.18C55.9825 47.6597 55.8012 47.5621 55.6756 47.4084C55.55 47.2547 55.4904 47.0575 55.51 46.8599L55.91 42.8599C55.9406 42.6723 56.0412 42.5032 56.1917 42.387C56.3421 42.2707 56.5311 42.216 56.7204 42.2338C56.9097 42.2515 57.0852 42.3406 57.2113 42.4828C57.3375 42.625 57.4049 42.8099 57.4 42.9999L57 46.9999C56.9827 47.1848 56.8974 47.3566 56.7607 47.4822C56.624 47.6078 56.4456 47.6783 56.26 47.6799Z" fill="#293961"/>
</svg>
