<svg width="19" height="19" viewBox="0 0 19 19" fill="none" xmlns="http://www.w3.org/2000/svg">
    <path d="M17.4697 18.2803C17.7626 18.5732 18.2374 18.5732 18.5303 18.2803C18.8232 17.9874 18.8232 17.5126 18.5303 17.2197L17.4697 18.2803ZM15.25 8.25C15.25 11.9779 12.2279 15 8.5 15V16.5C13.0563 16.5 16.75 12.8063 16.75 8.25H15.25ZM8.5 15C4.77208 15 1.75 11.9779 1.75 8.25H0.25C0.25 12.8063 3.94365 16.5 8.5 16.5V15ZM1.75 8.25C1.75 4.52208 4.77208 1.5 8.5 1.5V0C3.94365 0 0.25 3.69365 0.25 8.25H1.75ZM8.5 1.5C12.2279 1.5 15.25 4.52208 15.25 8.25H16.75C16.75 3.69365 13.0563 0 8.5 0V1.5ZM18.5303 17.2197L14.3428 13.0321L13.2821 14.0928L17.4697 18.2803L18.5303 17.2197Z" fill="#959595"/>
</svg>
